<svg xmlns="http://www.w3.org/2000/svg" viewBox="-760.0 -369.6 1248.0 747.2" width="1248" height="747">
<rect x="-760.0" y="-369.6" width="1248.0" height="747.2" fill="#cfe6f2"/>
<path d="M-153.6 -329.6 L-131.2 -326.4 L-121.6 -307.2 L-112.0 -316.8 L-73.6 -307.2 L-30.4 -278.4 L-17.6 -252.8 L-17.6 -236.8 L9.6 -211.2 L9.6 -198.4 L-6.4 -180.8 L4.8 -187.2 L41.6 -180.8 L56.0 -158.4 L107.2 -145.6 L102.4 -123.2 L123.2 -121.6 L129.6 -158.4 L147.2 -171.2 L160.0 -171.2 L174.4 -132.8 L196.8 -104.0 L196.8 -84.8 L235.2 -75.2 L236.8 -67.2 L251.2 -67.2 L304.0 -40.0 L321.6 -40.0 L369.6 -78.4 L412.8 -81.6 L440.0 -73.6 L448.0 -59.2 L448.0 -22.4 L424.0 -20.8 L403.2 99.2 L379.2 118.4 L374.4 145.6 L355.2 153.6 L348.8 164.8 L308.8 169.6 L268.8 187.2 L142.4 214.4 L107.2 236.8 L41.6 232.0 L28.8 209.6 L11.2 214.4 L0.0 227.2 L-16.0 228.8 L-17.6 254.4 L-24.0 267.2 L-35.2 270.4 L-32.0 300.8 L-40.0 316.8 L-48.0 318.4 L-48.0 336.0 L-67.2 334.4 L-70.4 324.8 L-94.4 324.8 L-108.8 337.6 L-153.6 337.6 L-155.2 331.2 L-187.2 336.0 L-252.8 294.4 L-272.0 267.2 L-307.2 251.2 L-336.0 219.2 L-400.0 217.6 L-427.2 195.2 L-428.8 179.2 L-438.4 206.4 L-478.4 192.0 L-492.8 216.0 L-508.8 216.0 L-518.4 203.2 L-536.0 204.8 L-539.2 217.6 L-569.6 212.8 L-572.8 220.8 L-587.2 220.8 L-593.6 216.0 L-609.6 232.0 L-640.0 233.6 L-654.4 211.2 L-656.0 179.2 L-673.6 166.4 L-700.8 164.8 L-716.8 139.2 L-720.0 99.2 L-707.2 96.0 L-715.2 70.4 L-697.6 68.8 L-708.8 56.0 L-707.2 35.2 L-680.0 6.4 L-678.4 -19.2 L-664.0 -20.8 L-662.4 -35.2 L-632.0 -33.6 L-622.4 -19.2 L-612.8 -20.8 L-612.8 -32.0 L-580.8 -30.4 L-585.6 -41.6 L-601.6 -40.0 L-608.0 -49.6 L-622.4 -49.6 L-624.0 -40.0 L-651.2 -43.2 L-644.8 -73.6 L-638.4 -75.2 L-638.4 -118.4 L-630.4 -129.6 L-611.2 -132.8 L-600.0 -180.8 L-588.8 -195.2 L-560.0 -187.2 L-558.4 -203.2 L-524.8 -219.2 L-513.6 -219.2 L-508.8 -212.8 L-499.2 -246.4 L-480.0 -257.6 L-448.0 -260.8 L-438.4 -235.2 L-409.6 -243.2 L-408.0 -225.6 L-400.0 -219.2 L-406.4 -201.6 L-387.2 -195.2 L-387.2 -182.4 L-417.6 -182.4 L-419.2 -169.6 L-449.6 -174.4 L-456.0 -169.6 L-456.0 -150.4 L-470.4 -150.4 L-473.6 -140.8 L-462.4 -139.2 L-457.6 -131.2 L-433.6 -132.8 L-435.2 -100.8 L-414.4 -99.2 L-411.2 -57.6 L-403.2 -56.0 L-401.6 -92.8 L-424.0 -121.6 L-424.0 -137.6 L-403.2 -152.0 L-384.0 -153.6 L-374.4 -190.4 L-356.8 -195.2 L-368.0 -200.0 L-368.0 -224.0 L-331.2 -232.0 L-302.4 -248.0 L-296.0 -260.8 L-262.4 -273.6 L-193.6 -323.2 Z" fill="#e9e4d3" stroke="#cbb98c" stroke-width="2"/><path d="M576.0 -204.8 L592.0 -196.8 L622.4 -198.4 L627.2 -203.2 L640.0 -200.0 L673.6 -185.6 L707.2 -158.4 L720.0 -132.8 L716.8 -100.8 L708.8 -76.8 L697.6 -78.4 L694.4 -75.2 L688.0 -75.2 L678.4 -86.4 L670.4 -86.4 L652.8 -76.8 L632.0 -78.4 L611.2 -60.8 L604.8 -60.8 L601.6 -48.0 L595.2 -46.4 L572.8 -80.0 L566.4 -83.2 L556.8 -96.0 L536.0 -105.6 L529.6 -123.2 L537.6 -137.6 L534.4 -140.8 L526.4 -137.6 L513.6 -116.8 L502.4 -118.4 L500.8 -129.6 L491.2 -148.8 L491.2 -158.4 L497.6 -174.4 L508.8 -179.2 L513.6 -171.2 L524.8 -166.4 L531.2 -155.2 L531.2 -142.4 L534.4 -140.8 L540.8 -147.2 L532.8 -172.8 L532.8 -184.0 L552.0 -184.0 L553.6 -188.8 L563.2 -188.8 Z" fill="#e9e4d3" stroke="#cbb98c" stroke-width="1.5"/><path d="M231.7 -212.6 L266.9 -201.4 L298.9 -182.2 L303.7 -185.4 L311.7 -180.6 L334.1 -182.2 L356.5 -187.0 L359.7 -182.2 L410.9 -182.2 L412.5 -179.0 L415.7 -182.2 L434.9 -163.0 L434.9 -158.2 L426.9 -156.6 L423.7 -142.2 L406.1 -140.6 L415.7 -139.0 L415.7 -129.4 L398.1 -129.4 L398.1 -135.8 L407.7 -131.0 L412.5 -134.2 L401.3 -140.6 L388.5 -139.0 L375.7 -142.2 L375.7 -139.0 L367.7 -139.0 L366.1 -132.6 L354.9 -124.6 L303.7 -118.2 L308.5 -123.0 L297.3 -135.8 L287.7 -139.0 L300.5 -118.2 L295.7 -115.0 L260.5 -139.0 L258.9 -150.2 L276.5 -145.4 L278.1 -151.8 L223.7 -174.2 L207.7 -191.8 L204.5 -198.2 Z" fill="#e9e4d3" stroke="#cbb98c" stroke-width="1.5"/><path d="M270.1 -142.9 L271.4 -142.9 L272.2 -142.1 L273.0 -142.1 L273.4 -142.7 L274.7 -142.6 L274.7 -141.6 L276.2 -140.2 L276.6 -138.4 L277.3 -138.1 L277.4 -138.7 L278.4 -138.6 L278.1 -135.5 L279.8 -134.4 L281.0 -132.5 L281.6 -132.0 L283.7 -132.0 L285.4 -130.9 L285.4 -129.8 L284.6 -129.1 L284.6 -128.0 L285.4 -126.9 L286.6 -126.9 L287.2 -126.1 L290.9 -126.1 L291.7 -125.6 L291.7 -124.6 L289.9 -124.3 L290.2 -122.9 L290.9 -122.2 L293.0 -122.2 L294.4 -121.3 L294.4 -117.6 L295.0 -116.2 L294.7 -114.9 L297.4 -114.9 L297.8 -114.4 L297.8 -113.4 L296.8 -112.5 L295.5 -111.7 L295.5 -111.4 L296.2 -111.0 L296.2 -110.2 L295.0 -110.2 L294.9 -111.4 L293.4 -111.4 L290.9 -112.6 L289.9 -115.0 L284.8 -118.6 L283.7 -120.2 L281.8 -121.6 L279.7 -122.2 L279.0 -124.0 L277.4 -125.6 L275.4 -126.9 L274.2 -126.4 L274.4 -127.5 L270.7 -130.9 L267.5 -133.1 L263.5 -133.4 L260.6 -135.7 L260.6 -136.2 L261.6 -136.2 L261.8 -136.8 L260.5 -137.0 L260.2 -137.4 L260.2 -139.0 L258.9 -142.7 L259.5 -142.7 L261.6 -140.2 L263.5 -139.8 L265.1 -141.9 L266.2 -142.2 L266.7 -142.2 L267.4 -140.5 L269.1 -140.3 L269.4 -142.6 Z" fill="#e9e4d3" stroke="#cbb98c" stroke-width="1.5"/><path d="M185.3 -166.9 L188.5 -165.4 L191.4 -159.2 L194.6 -156.2 L196.3 -156.3 L196.3 -155.5 L197.6 -154.4 L198.4 -152.8 L199.0 -152.6 L201.0 -148.6 L202.4 -147.5 L204.3 -147.2 L205.9 -145.8 L208.3 -142.7 L210.1 -141.6 L210.1 -140.8 L211.4 -139.2 L216.3 -135.2 L216.5 -133.8 L215.8 -132.6 L215.2 -132.6 L213.6 -131.4 L211.8 -131.7 L211.5 -132.8 L210.2 -133.8 L209.3 -135.5 L209.6 -136.2 L209.4 -136.8 L207.7 -136.8 L205.3 -137.9 L201.3 -138.1 L198.4 -140.5 L196.5 -140.3 L196.8 -141.4 L196.2 -141.6 L195.4 -142.7 L192.8 -143.8 L190.9 -145.4 L189.4 -145.1 L189.4 -146.2 L186.6 -148.0 L185.6 -151.5 L186.2 -161.0 L185.0 -165.1 Z" fill="#e9e4d3" stroke="#cbb98c" stroke-width="1.5"/><path d="M167.8 -183.2 L170.1 -182.7 L171.5 -181.0 L172.5 -180.8 L175.4 -174.6 L177.8 -172.2 L178.7 -170.4 L181.6 -167.8 L182.1 -165.1 L181.4 -165.0 L181.4 -164.0 L182.2 -163.8 L183.5 -159.2 L184.6 -157.9 L184.6 -156.3 L183.5 -154.6 L182.1 -155.0 L182.1 -156.2 L181.3 -157.0 L179.7 -157.4 L179.5 -158.1 L177.6 -159.0 L177.0 -160.8 L175.2 -162.7 L173.8 -165.8 L171.4 -168.6 L169.4 -172.5 L169.0 -174.6 L167.5 -176.0 L166.4 -176.0 L166.9 -177.8 L166.1 -181.0 Z" fill="#e9e4d3" stroke="#cbb98c" stroke-width="1.5"/><path d="M413.3 -136.3 L415.4 -136.2 L415.7 -135.7 L416.0 -133.9 L415.4 -133.9 L415.0 -133.3 L416.2 -132.8 L416.6 -130.7 L416.2 -129.6 L416.6 -128.5 L416.3 -127.2 L415.5 -127.2 L415.4 -128.5 L414.4 -128.5 L413.1 -127.5 L409.1 -127.8 L407.7 -126.7 L404.2 -126.2 L401.8 -126.2 L400.2 -127.5 L399.5 -129.8 L400.8 -132.0 L401.4 -132.0 L401.4 -128.5 L403.0 -127.8 L405.1 -128.0 L405.6 -128.6 L408.2 -128.2 L409.1 -129.0 L411.8 -129.0 L413.8 -129.6 L414.4 -130.7 L414.2 -132.0 L414.9 -133.3 L414.7 -134.2 L413.1 -135.5 Z" fill="#e9e4d3" stroke="#cbb98c" stroke-width="1.5"/><path d="M284.8 -139.7 L285.9 -139.7 L286.1 -139.2 L287.2 -139.2 L288.2 -138.1 L289.3 -138.1 L289.3 -135.7 L287.4 -134.9 L285.6 -135.0 L283.7 -138.1 Z" fill="#e9e4d3" stroke="#cbb98c" stroke-width="1.5"/><path d="M361.9 -192.6 L362.2 -192.6 L362.1 -192.0 L357.6 -190.9 L350.2 -190.9 L349.1 -191.4 L349.6 -192.0 L356.6 -191.8 L360.2 -192.0 Z" fill="#e9e4d3" stroke="#cbb98c" stroke-width="1.5"/><path d="M291.5 -201.9 L295.0 -201.0 L303.7 -200.8 L304.3 -200.5 L304.3 -200.2 L300.0 -200.5 L295.5 -200.2 L294.4 -200.8 L291.7 -201.3 Z" fill="#e9e4d3" stroke="#cbb98c" stroke-width="1.5"/><path d="M-126.1 379.5 L-121.4 379.5 L-120.5 379.5 L-115.8 379.5 L-113.0 379.5 L-110.2 381.4 L-106.6 385.1 L-104.6 386.1 L-102.9 385.1 L-101.9 384.2 L-98.2 383.4 L-92.6 383.4 L-84.3 385.1 L-78.7 388.0 L-75.0 388.8 L-71.2 389.8 L-69.4 389.8 L-68.5 389.8 L-65.8 389.8 L-62.9 389.8 L-59.2 391.7 L-55.5 394.4 L-52.6 394.4 L-49.9 394.4 L-46.2 399.0 L-42.6 401.0 L-37.9 401.9 L-32.3 403.7 L-29.4 404.6 L-21.1 404.6 L-15.5 403.7 L-12.8 402.7 L-10.9 402.7 L-4.5 408.3 L-0.8 410.2 L3.0 410.2 L8.5 410.2 L14.1 408.3 L25.3 408.3 L26.2 409.3 L26.2 410.2 L21.6 421.3 L21.6 424.2 L23.4 427.8 L23.4 429.8 L21.6 433.4 L21.6 439.8 L22.4 443.7 L22.4 448.3 L22.4 450.1 L18.7 453.0 L10.4 456.6 L4.8 461.3 L-4.5 471.5 L-7.2 475.2 L-9.1 476.2 L-12.8 474.2 L-18.4 468.6 L-23.0 466.9 L-27.7 463.0 L-29.4 461.3 L-31.4 458.4 L-34.1 455.7 L-41.6 449.1 L-49.0 441.8 L-54.6 437.1 L-62.9 429.8 L-76.8 420.5 L-83.4 418.6 L-89.8 413.0 L-95.4 407.4 L-101.9 404.6 L-106.6 401.9 L-112.2 395.4 L-113.9 390.7 L-113.9 389.8 L-118.6 389.8 L-119.5 388.8 L-126.9 382.4 L-126.9 380.5 Z" fill="#e9e4d3" stroke="#cbb98c" stroke-width="1.5"/><path d="M21.6 320.5 L25.3 320.5 L31.8 322.4 L34.6 325.1 L37.4 327.8 L39.2 330.7 L41.1 332.5 L42.1 333.4 L44.8 333.4 L47.5 335.4 L48.5 337.1 L49.4 339.0 L51.4 342.7 L52.2 343.7 L53.1 343.7 L55.0 345.6 L59.7 348.3 L60.6 350.2 L61.4 352.0 L61.4 355.7 L60.6 356.6 L60.6 358.6 L56.0 362.2 L54.1 363.2 L51.4 363.2 L51.4 362.2 L49.4 361.3 L47.5 360.3 L45.8 358.6 L43.8 356.6 L37.4 355.7 L32.8 353.9 L31.8 353.9 L30.9 354.9 L29.9 354.9 L29.0 355.7 L28.2 356.6 L24.3 356.6 L22.6 355.7 L20.6 356.6 L18.9 354.9 L15.0 355.7 L13.3 353.9 L9.6 353.0 L6.7 351.0 L4.0 350.2 L1.1 348.3 L-0.6 348.3 L-1.6 347.4 L-1.6 345.6 L-2.6 344.6 L-5.3 342.7 L-5.3 342.7 L-5.3 341.8 L-4.3 341.8 L-2.6 341.0 L-1.6 339.0 L0.3 338.1 L2.1 337.1 L4.0 336.3 L5.0 336.3 L5.8 336.3 L6.7 336.3 L9.6 336.3 L12.3 336.3 L13.3 336.3 L14.2 336.3 L15.0 334.4 L16.0 334.4 L17.0 334.4 L17.9 333.4 L17.9 331.7 L17.9 330.7 L17.9 329.8 L17.9 328.8 L17.9 327.8 L17.0 327.0 L14.2 327.0 L14.2 326.1 L15.0 326.1 L16.0 326.1 L17.0 325.1 L17.9 324.2 L18.9 322.4 L19.7 321.4 L20.6 320.5 Z" fill="#e9e4d3" stroke="#cbb98c" stroke-width="1.5"/><path d="M-97.3 482.6 L-83.4 477.0 L-71.2 483.5 L-78.7 493.8 L-93.6 491.8 Z" fill="#e9e4d3" stroke="#cbb98c" stroke-width="1.5"/><path d="M-32.3 491.8 L-18.4 488.2 L-10.1 495.5 L-16.5 504.8 L-30.4 503.0 Z" fill="#e9e4d3" stroke="#cbb98c" stroke-width="1.5"/><path d="M-584.5 317.6 L-583.7 317.6 L-582.1 319.4 L-581.6 321.8 L-580.3 322.6 L-580.0 324.6 L-578.4 326.1 L-578.4 328.0 L-577.4 328.2 L-577.8 331.0 L-576.5 333.1 L-574.7 333.4 L-573.6 335.8 L-572.0 336.3 L-570.9 342.1 L-569.4 343.5 L-569.4 345.0 L-568.5 345.1 L-568.3 347.4 L-567.0 347.5 L-566.9 349.3 L-565.0 353.0 L-564.2 353.9 L-562.9 353.9 L-561.9 354.7 L-561.3 355.5 L-561.3 356.8 L-558.9 358.9 L-555.8 359.2 L-553.9 360.5 L-552.5 360.5 L-550.4 362.6 L-550.1 367.2 L-552.5 368.3 L-555.8 378.1 L-555.8 382.1 L-554.9 382.6 L-555.0 384.6 L-559.0 384.6 L-559.2 388.3 L-560.0 388.8 L-563.7 388.0 L-566.1 389.9 L-569.9 390.2 L-569.9 389.1 L-572.5 386.4 L-573.3 382.1 L-580.3 382.4 L-581.8 381.3 L-582.1 380.0 L-585.4 380.5 L-587.0 380.0 L-593.3 380.0 L-593.6 381.8 L-598.7 381.8 L-599.2 386.4 L-600.3 386.7 L-600.6 389.8 L-601.8 390.9 L-606.2 390.9 L-606.2 389.9 L-605.3 389.4 L-605.9 387.8 L-606.7 387.8 L-607.8 390.2 L-609.6 389.9 L-609.6 389.4 L-612.3 389.8 L-613.4 388.6 L-615.0 388.6 L-615.2 387.8 L-616.2 387.8 L-617.4 389.9 L-620.8 390.4 L-622.7 388.6 L-622.9 387.0 L-625.0 387.0 L-625.6 386.2 L-625.6 384.0 L-624.5 383.2 L-622.2 383.2 L-621.6 382.1 L-620.3 381.8 L-619.2 378.6 L-614.9 378.2 L-614.1 374.2 L-611.5 373.1 L-612.5 366.7 L-616.3 365.8 L-616.3 363.8 L-614.9 363.4 L-612.6 364.3 L-609.6 363.8 L-608.2 361.8 L-606.2 360.5 L-605.8 358.6 L-603.8 358.1 L-602.1 355.8 L-602.1 353.4 L-603.7 350.6 L-605.8 348.5 L-605.3 346.4 L-602.1 346.7 L-600.3 344.2 L-600.0 336.3 L-601.8 333.9 L-602.2 331.7 L-600.5 331.0 L-597.4 331.0 L-596.3 331.2 L-594.9 333.1 L-593.0 332.6 L-592.0 330.1 L-591.4 329.6 L-591.0 322.6 L-589.3 321.8 L-587.5 321.8 L-585.9 319.0 Z" fill="#e9e4d3" stroke="#cbb98c" stroke-width="1.5"/><path d="M-555.7 280.0 L-554.7 280.0 L-554.1 283.8 L-554.7 285.8 L-555.7 285.8 L-557.1 287.7 L-557.3 293.9 L-554.7 293.9 L-553.8 294.9 L-550.2 296.3 L-547.2 295.5 L-546.7 297.0 L-545.4 297.0 L-544.3 295.5 L-539.7 295.4 L-535.0 297.0 L-531.4 296.5 L-528.3 297.3 L-527.2 298.4 L-526.7 301.0 L-525.6 302.2 L-522.7 302.6 L-521.3 303.5 L-522.1 306.4 L-523.0 306.6 L-523.4 309.0 L-521.8 311.0 L-520.5 311.8 L-520.2 314.7 L-518.9 314.4 L-518.6 308.0 L-521.6 307.8 L-521.6 306.9 L-517.4 307.4 L-517.6 313.8 L-516.8 317.9 L-516.0 319.0 L-516.2 321.8 L-518.1 322.6 L-524.8 323.4 L-526.4 321.8 L-526.7 320.3 L-528.3 320.3 L-528.3 323.0 L-529.6 323.5 L-530.1 321.1 L-532.2 320.3 L-532.2 319.0 L-533.1 318.9 L-533.9 316.3 L-534.9 315.5 L-535.8 315.2 L-536.2 313.8 L-537.4 313.8 L-537.1 317.3 L-535.8 319.4 L-534.7 319.4 L-533.4 321.1 L-533.4 324.3 L-533.0 325.1 L-533.0 326.1 L-530.1 326.2 L-529.8 328.0 L-532.5 328.5 L-533.1 329.3 L-533.1 333.1 L-534.1 334.7 L-537.6 335.0 L-538.7 334.2 L-541.9 334.2 L-542.6 335.8 L-544.5 336.3 L-546.1 341.0 L-547.8 342.2 L-547.8 344.6 L-548.6 346.1 L-548.6 348.0 L-549.1 348.3 L-552.0 347.4 L-554.9 347.5 L-555.7 347.2 L-556.5 342.9 L-560.0 338.7 L-561.8 335.5 L-561.8 333.4 L-562.6 332.3 L-562.4 330.1 L-560.5 328.2 L-560.5 327.2 L-561.8 325.8 L-562.9 325.4 L-562.9 323.8 L-563.7 322.2 L-563.7 319.0 L-561.9 316.8 L-559.2 316.0 L-559.2 307.8 L-562.6 307.5 L-562.4 303.2 L-563.2 302.6 L-564.2 302.6 L-565.0 304.0 L-568.3 303.5 L-568.8 302.6 L-568.6 299.4 L-571.0 297.3 L-573.6 297.0 L-573.8 295.2 L-574.9 294.9 L-574.9 293.6 L-574.2 292.6 L-571.2 294.1 L-569.9 293.9 L-568.8 292.5 L-566.7 292.2 L-565.1 289.4 L-565.4 286.2 L-566.7 285.4 L-566.7 284.0 L-563.7 283.8 L-562.9 280.3 L-561.9 280.3 L-561.4 281.1 L-559.7 281.1 L-559.7 280.5 L-556.0 280.8 Z" fill="#e9e4d3" stroke="#cbb98c" stroke-width="1.5"/><path d="M-541.0 366.9 L-538.7 367.7 L-535.2 367.5 L-535.0 368.0 L-535.0 373.1 L-536.8 374.2 L-536.5 379.4 L-535.7 380.5 L-534.7 380.8 L-529.0 380.8 L-528.0 381.8 L-527.0 381.8 L-525.6 384.0 L-523.7 384.2 L-521.0 386.4 L-520.2 388.3 L-518.9 388.3 L-518.1 390.7 L-514.2 392.2 L-513.1 394.7 L-509.6 395.0 L-509.3 397.0 L-507.7 398.9 L-507.2 400.3 L-506.4 401.3 L-504.6 401.9 L-502.7 404.3 L-502.7 405.6 L-503.5 406.7 L-503.5 408.6 L-502.2 408.6 L-501.8 408.0 L-501.8 405.8 L-497.9 406.7 L-495.2 405.0 L-494.7 404.3 L-494.7 401.3 L-493.9 400.8 L-493.1 398.9 L-491.8 398.7 L-491.8 397.6 L-489.1 397.1 L-488.0 398.1 L-488.0 401.9 L-488.5 402.6 L-491.8 402.9 L-492.3 405.0 L-493.6 405.4 L-492.5 411.5 L-493.1 414.9 L-497.3 414.9 L-497.6 416.8 L-499.5 416.8 L-501.0 418.9 L-501.1 425.4 L-502.9 426.2 L-504.8 426.2 L-505.1 427.4 L-506.7 427.4 L-507.0 427.0 L-507.0 424.3 L-509.6 424.3 L-510.6 423.5 L-511.5 420.8 L-514.2 420.3 L-514.7 419.7 L-516.8 418.7 L-517.3 417.6 L-519.2 417.6 L-519.7 414.6 L-523.0 410.4 L-528.8 409.9 L-529.3 411.5 L-530.7 412.5 L-533.4 412.6 L-534.1 409.9 L-535.5 409.9 L-538.4 408.2 L-539.7 408.2 L-540.2 406.7 L-541.3 406.6 L-541.3 405.4 L-542.4 404.3 L-544.3 405.0 L-544.3 403.7 L-543.5 403.7 L-542.9 402.4 L-542.6 398.7 L-544.5 396.5 L-544.6 393.1 L-546.6 390.4 L-546.6 389.4 L-547.8 388.0 L-547.8 385.6 L-548.8 385.4 L-549.1 386.4 L-550.1 386.4 L-550.2 384.5 L-552.5 381.8 L-552.5 380.2 L-552.2 376.2 L-550.9 375.5 L-549.8 373.4 L-549.6 371.5 L-547.5 370.1 L-547.5 368.3 L-542.9 368.3 Z" fill="#e9e4d3" stroke="#cbb98c" stroke-width="1.5"/><path d="M-486.4 327.7 L-484.6 327.7 L-484.3 329.8 L-482.1 332.0 L-481.9 337.9 L-481.3 341.4 L-482.2 341.4 L-482.7 342.9 L-479.8 343.0 L-478.9 345.1 L-477.3 345.1 L-477.1 345.9 L-477.1 347.2 L-478.1 347.4 L-477.9 351.4 L-479.0 352.6 L-480.3 352.6 L-481.4 351.4 L-484.0 351.4 L-485.9 352.6 L-487.4 352.6 L-489.1 353.9 L-489.3 355.2 L-490.2 356.6 L-490.2 371.8 L-491.0 372.3 L-495.8 372.3 L-497.3 373.4 L-500.2 373.1 L-500.2 368.3 L-501.8 366.9 L-502.1 365.3 L-509.6 365.1 L-510.4 364.6 L-510.7 362.4 L-513.3 362.1 L-515.0 357.6 L-515.0 354.6 L-513.9 354.2 L-511.5 351.2 L-511.2 346.9 L-509.0 346.1 L-509.0 345.0 L-509.6 344.6 L-509.6 342.6 L-508.2 340.5 L-506.9 340.5 L-506.4 341.4 L-505.6 341.8 L-502.9 341.4 L-501.8 342.2 L-500.5 348.5 L-493.4 348.5 L-492.3 346.4 L-490.6 344.6 L-490.7 338.9 L-491.4 338.2 L-491.4 335.0 L-490.7 334.7 L-491.4 329.3 Z" fill="#e9e4d3" stroke="#cbb98c" stroke-width="1.5"/><path d="M-632.2 293.9 L-630.2 293.9 L-628.2 296.3 L-620.5 296.8 L-620.3 296.0 L-617.4 295.5 L-617.0 294.9 L-615.7 295.2 L-615.7 296.3 L-616.6 297.3 L-618.7 297.3 L-619.2 298.4 L-619.8 298.7 L-620.8 302.6 L-622.2 302.7 L-622.4 304.0 L-624.5 305.6 L-624.5 307.8 L-625.0 308.0 L-625.0 309.3 L-623.8 310.2 L-623.8 311.7 L-624.8 311.8 L-624.8 313.3 L-624.0 314.1 L-624.0 316.0 L-623.0 317.6 L-623.0 318.9 L-624.5 320.3 L-625.6 320.6 L-626.6 322.6 L-628.8 323.0 L-629.1 324.3 L-633.9 326.6 L-635.2 328.0 L-635.2 329.3 L-636.0 330.4 L-637.8 330.4 L-638.2 333.9 L-639.0 333.9 L-639.8 335.0 L-639.5 337.8 L-640.2 337.9 L-640.2 340.2 L-644.0 340.5 L-647.4 339.4 L-647.2 335.8 L-647.4 333.9 L-648.0 333.6 L-647.8 331.2 L-646.9 330.1 L-645.8 329.8 L-645.0 326.2 L-642.1 325.4 L-641.4 324.3 L-640.6 320.3 L-641.1 319.0 L-642.6 319.0 L-644.0 317.1 L-644.0 314.9 L-645.0 314.7 L-644.5 312.8 L-641.4 312.2 L-641.6 304.3 L-642.4 303.5 L-642.4 302.6 L-641.3 302.2 L-638.4 303.0 L-637.1 301.0 L-634.4 300.6 L-634.4 299.8 L-633.4 299.8 L-632.6 297.8 Z" fill="#e9e4d3" stroke="#cbb98c" stroke-width="1.5"/><path d="M-590.2 418.4 L-588.6 418.4 L-588.6 421.1 L-587.4 422.9 L-578.7 422.9 L-577.3 424.6 L-575.0 425.8 L-574.7 428.6 L-573.4 431.2 L-571.0 431.2 L-570.9 433.0 L-571.7 434.6 L-572.5 437.9 L-573.0 438.4 L-574.2 442.7 L-577.0 443.2 L-577.9 442.4 L-578.4 439.5 L-580.0 439.5 L-581.0 440.3 L-584.5 440.3 L-585.3 443.8 L-586.2 443.8 L-587.0 440.6 L-591.0 436.0 L-592.6 436.0 L-594.9 440.3 L-597.3 440.3 L-597.8 441.1 L-599.2 441.1 L-599.2 440.0 L-601.3 440.0 L-601.3 438.4 L-602.2 437.4 L-602.2 435.5 L-602.9 434.9 L-603.0 433.0 L-601.8 432.5 L-601.6 430.1 L-598.7 429.3 L-597.9 428.2 L-596.3 428.2 L-595.5 427.4 L-594.9 424.6 L-593.8 424.3 L-594.1 421.3 L-593.6 419.5 L-590.7 419.2 Z" fill="#e9e4d3" stroke="#cbb98c" stroke-width="1.5"/><path d="M-562.9 434.9 L-557.9 434.9 L-555.4 436.6 L-552.5 436.2 L-551.4 437.4 L-551.4 439.8 L-552.2 440.0 L-552.2 446.6 L-553.9 450.1 L-555.7 449.6 L-555.8 446.7 L-562.6 446.7 L-562.4 450.4 L-562.9 450.9 L-564.6 450.4 L-564.6 449.0 L-564.2 448.2 L-562.9 448.0 L-562.9 443.2 L-563.7 442.4 L-563.7 437.6 Z" fill="#e9e4d3" stroke="#cbb98c" stroke-width="1.5"/><path d="M-574.2 312.8 L-573.4 312.8 L-569.9 315.7 L-569.4 317.6 L-568.5 317.6 L-568.5 319.0 L-569.4 320.0 L-568.8 330.4 L-569.3 332.6 L-571.0 332.5 L-571.2 330.4 L-572.8 330.1 L-574.2 329.0 L-574.9 325.1 L-577.8 319.5 L-577.8 315.7 Z" fill="#e9e4d3" stroke="#cbb98c" stroke-width="1.5"/><path d="M-526.4 331.2 L-523.5 331.2 L-521.1 335.0 L-521.1 337.1 L-520.5 337.4 L-520.5 338.4 L-520.8 342.9 L-521.1 343.0 L-521.3 345.1 L-523.7 345.1 L-524.2 344.6 L-524.2 343.0 L-525.1 342.6 L-526.7 342.6 L-526.7 344.6 L-528.0 344.5 L-528.0 340.2 L-527.5 336.6 L-526.4 336.0 L-526.4 334.2 L-527.7 333.6 L-527.7 332.5 Z" fill="#e9e4d3" stroke="#cbb98c" stroke-width="1.5"/><path d="M-504.6 313.1 L-503.8 313.1 L-502.9 317.9 L-503.8 319.4 L-507.0 319.8 L-507.7 318.1 L-508.8 317.3 L-508.8 316.0 L-508.2 315.2 L-505.9 315.5 Z" fill="#e9e4d3" stroke="#cbb98c" stroke-width="1.5"/><path d="M-498.4 297.9 L-497.3 297.9 L-496.8 298.7 L-496.3 303.2 L-497.3 303.2 L-497.3 301.6 L-498.4 301.4 L-498.7 300.6 L-498.9 298.2 Z" fill="#e9e4d3" stroke="#cbb98c" stroke-width="1.5"/><path d="M-617.4 359.8 L-616.3 360.0 L-616.2 361.8 L-616.8 362.4 L-616.8 363.0 L-618.7 363.0 L-619.2 362.6 L-619.2 360.5 Z" fill="#e9e4d3" stroke="#cbb98c" stroke-width="1.5"/><path d="M-451.7 352.5 L-448.5 352.6 L-448.5 354.9 L-445.9 355.4 L-443.8 360.0 L-440.8 360.5 L-440.0 361.3 L-440.2 364.3 L-440.8 365.6 L-441.9 365.9 L-442.4 367.8 L-444.0 367.7 L-444.3 366.7 L-444.3 363.7 L-445.1 363.7 L-445.8 365.4 L-446.6 365.3 L-447.4 360.3 L-448.3 360.0 L-448.5 358.6 L-452.2 358.1 L-452.3 355.5 L-455.0 354.9 L-455.0 353.9 L-453.0 353.6 Z" fill="#e9e4d3" stroke="#cbb98c" stroke-width="1.5"/><path d="M-468.6 359.4 L-468.0 359.4 L-467.8 361.0 L-467.4 361.3 L-467.5 365.1 L-468.3 366.2 L-468.0 368.0 L-466.4 369.3 L-466.2 371.5 L-464.3 372.2 L-464.3 373.3 L-464.6 373.4 L-467.5 373.1 L-469.4 371.4 L-470.6 371.4 L-471.0 369.0 L-471.7 368.3 L-471.8 363.5 L-472.2 363.4 L-471.8 361.4 L-468.8 360.6 Z" fill="#e9e4d3" stroke="#cbb98c" stroke-width="1.5"/><path d="M-506.4 313.6 L-505.6 313.4 L-504.8 314.4 L-504.6 316.8 L-504.3 317.3 L-501.4 317.3 L-501.1 318.1 L-498.2 317.6 L-498.1 320.2 L-500.2 320.3 L-501.0 319.7 L-501.1 318.6 L-503.7 318.1 L-504.3 318.1 L-505.6 319.5 L-507.7 319.4 L-508.0 320.0 L-508.6 320.0 L-509.0 318.2 L-510.4 317.9 L-510.9 317.0 L-511.0 316.2 L-508.8 315.5 L-508.8 316.3 L-508.0 316.3 Z" fill="#e9e4d3" stroke="#cbb98c" stroke-width="1.5"/><path d="M-500.0 298.2 L-498.2 298.4 L-498.4 301.8 L-497.6 301.8 L-497.3 303.2 L-498.4 303.4 L-498.4 301.1 L-499.5 301.0 L-500.5 299.8 L-500.5 298.6 Z" fill="#e9e4d3" stroke="#cbb98c" stroke-width="1.5"/>
<path d="M-236.6 -242.2 L-246.1 -245.3 L-239.5 -246.1 L-235.2 -248.2 L-228.2 -253.8 L-229.4 -255.5 L-223.4 -258.1 L-225.6 -255.8 L-223.2 -254.2 L-224.8 -252.3 L-234.9 -247.4 L-233.8 -244.5 L-236.6 -242.2 Z" fill="#a9d3ea" stroke="#7fb6d6" stroke-width="1"/><path d="M-27.4 -223.2 L-27.5 -228.2 L-25.8 -234.6 L-24.5 -237.3 L-22.9 -236.6 L-22.2 -237.8 L-22.7 -235.7 L-23.8 -233.4 L-24.0 -231.7 L-26.1 -228.2 L-27.4 -223.2 Z" fill="#a9d3ea" stroke="#7fb6d6" stroke-width="1"/><path d="M-17.8 -206.2 L-18.2 -207.0 L-17.4 -208.8 L-17.6 -210.9 L-19.4 -209.8 L-19.5 -212.8 L-20.3 -211.5 L-19.8 -214.9 L-19.2 -215.7 L-19.0 -213.9 L-18.4 -215.2 L-17.0 -213.9 L-16.6 -209.0 L-17.8 -206.2 Z" fill="#a9d3ea" stroke="#7fb6d6" stroke-width="1"/><path d="M-52.6 -157.6 L-53.8 -159.5 L-53.0 -163.5 L-52.3 -164.3 L-51.4 -162.2 L-49.8 -165.9 L-49.6 -169.0 L-49.9 -170.4 L-50.7 -170.2 L-49.9 -174.2 L-50.4 -176.5 L-49.6 -178.2 L-48.6 -176.0 L-47.8 -176.0 L-46.6 -177.9 L-46.1 -176.3 L-45.1 -179.2 L-45.3 -180.8 L-44.8 -181.8 L-44.5 -186.6 L-43.8 -185.8 L-42.4 -188.0 L-42.9 -189.8 L-42.2 -191.0 L-41.9 -187.2 L-41.1 -186.7 L-41.4 -184.0 L-40.8 -182.4 L-41.1 -181.3 L-40.8 -179.8 L-40.0 -180.3 L-40.0 -178.4 L-41.6 -176.8 L-42.6 -178.1 L-43.5 -176.5 L-43.8 -177.1 L-45.9 -173.1 L-48.3 -173.9 L-49.0 -172.2 L-48.6 -170.6 L-49.0 -166.9 L-49.4 -165.9 L-49.1 -164.8 L-50.4 -162.9 L-50.9 -159.4 L-51.7 -160.2 L-52.6 -157.6 Z" fill="#a9d3ea" stroke="#7fb6d6" stroke-width="1"/><path d="M27.4 -192.8 L26.6 -193.6 L21.8 -191.7 L27.0 -201.8 L29.1 -199.0 L27.4 -192.8 Z" fill="#a9d3ea" stroke="#7fb6d6" stroke-width="1"/><path d="M-95.5 -146.6 L-95.0 -149.0 L-96.0 -150.6 L-98.9 -148.5 L-102.2 -149.3 L-101.4 -151.2 L-98.2 -152.3 L-96.3 -155.0 L-98.2 -158.7 L-92.3 -159.7 L-88.8 -162.9 L-86.2 -163.7 L-84.5 -158.7 L-83.2 -157.9 L-81.6 -158.7 L-78.7 -155.7 L-80.0 -153.9 L-79.7 -153.0 L-81.6 -151.4 L-83.5 -154.2 L-86.1 -153.9 L-89.8 -151.2 L-92.8 -150.7 L-95.5 -146.6 Z" fill="#a9d3ea" stroke="#7fb6d6" stroke-width="1"/><path d="M-35.0 -149.3 L-35.8 -151.8 L-37.1 -153.1 L-38.4 -151.8 L-37.9 -154.1 L-38.7 -157.0 L-40.2 -153.8 L-41.4 -157.8 L-39.8 -160.3 L-38.6 -157.9 L-37.1 -159.7 L-36.2 -157.0 L-34.9 -155.7 L-34.2 -153.6 L-32.5 -157.8 L-31.2 -158.1 L-30.6 -156.6 L-31.2 -155.2 L-31.0 -152.0 L-31.5 -152.5 L-32.0 -150.7 L-33.3 -150.9 L-33.9 -149.6 L-35.0 -149.3 Z" fill="#a9d3ea" stroke="#7fb6d6" stroke-width="1"/><path d="M-46.4 -133.6 L-47.2 -134.7 L-47.8 -133.8 L-48.8 -136.3 L-49.6 -135.8 L-50.2 -137.1 L-48.0 -138.7 L-47.0 -141.0 L-47.4 -142.4 L-46.2 -144.0 L-45.6 -143.5 L-44.8 -145.1 L-45.0 -147.7 L-43.4 -149.1 L-42.9 -147.8 L-43.2 -143.8 L-43.5 -143.2 L-44.5 -144.8 L-45.4 -142.2 L-45.0 -140.5 L-43.4 -140.0 L-43.5 -137.1 L-45.6 -137.1 L-46.4 -133.6 Z" fill="#a9d3ea" stroke="#7fb6d6" stroke-width="1"/><path d="M-34.1 -116.0 L-35.5 -123.5 L-36.6 -125.1 L-36.8 -129.4 L-36.5 -131.0 L-34.4 -128.2 L-33.3 -124.3 L-33.8 -123.4 L-33.1 -122.4 L-33.8 -121.0 L-32.8 -119.5 L-33.0 -118.1 L-34.1 -116.0 Z" fill="#a9d3ea" stroke="#7fb6d6" stroke-width="1"/><path d="M-77.6 -37.3 L-77.0 -40.0 L-77.8 -43.0 L-82.6 -42.7 L-79.0 -44.0 L-75.7 -48.5 L-75.0 -51.0 L-74.6 -49.9 L-72.5 -51.8 L-70.4 -55.0 L-69.8 -58.4 L-71.0 -60.6 L-74.2 -62.6 L-76.5 -61.1 L-78.4 -57.8 L-77.1 -62.9 L-78.2 -64.6 L-82.6 -64.5 L-88.5 -61.8 L-92.6 -55.5 L-95.5 -54.9 L-98.1 -49.4 L-99.0 -50.9 L-101.8 -49.4 L-110.2 -39.5 L-111.4 -41.8 L-115.2 -40.5 L-120.0 -35.5 L-117.1 -42.1 L-118.7 -44.0 L-117.8 -45.1 L-111.7 -45.8 L-105.9 -49.3 L-101.3 -53.3 L-97.9 -58.4 L-97.3 -57.4 L-94.6 -59.2 L-90.2 -65.0 L-86.7 -65.8 L-83.7 -70.9 L-82.9 -69.1 L-80.5 -69.0 L-77.6 -72.0 L-76.2 -69.6 L-73.6 -72.8 L-73.6 -74.9 L-72.8 -76.0 L-73.6 -77.3 L-74.2 -76.6 L-74.4 -77.9 L-73.1 -77.8 L-71.4 -80.0 L-73.0 -75.0 L-73.4 -70.7 L-71.4 -67.0 L-68.3 -65.8 L-66.7 -67.7 L-66.2 -69.6 L-64.8 -68.6 L-63.4 -70.6 L-62.7 -74.1 L-62.1 -71.7 L-63.0 -67.4 L-62.1 -63.7 L-59.8 -61.0 L-60.2 -58.2 L-61.9 -53.8 L-63.4 -51.7 L-64.6 -52.2 L-67.4 -47.0 L-66.1 -53.0 L-66.9 -54.4 L-73.0 -48.5 L-74.9 -45.8 L-76.3 -39.4 L-77.6 -37.3 Z" fill="#a9d3ea" stroke="#7fb6d6" stroke-width="1"/><path d="M-67.0 51.0 L-66.7 42.6 L-70.1 42.4 L-72.2 45.3 L-78.9 35.8 L-82.6 36.5 L-84.6 39.4 L-85.8 37.1 L-92.6 39.4 L-95.5 42.7 L-97.0 48.8 L-98.7 49.3 L-97.1 42.1 L-97.8 40.2 L-102.1 39.7 L-106.2 41.4 L-105.6 35.7 L-110.1 36.8 L-110.7 35.2 L-108.5 28.5 L-109.1 23.5 L-105.1 24.0 L-105.0 28.6 L-102.9 31.0 L-99.8 27.5 L-97.4 21.9 L-97.3 31.4 L-93.3 34.1 L-89.8 34.1 L-86.6 30.1 L-85.0 24.5 L-83.5 27.5 L-81.3 26.7 L-79.8 29.8 L-77.8 29.8 L-74.9 27.0 L-73.4 31.5 L-69.1 33.3 L-67.0 30.7 L-65.0 23.5 L-65.9 17.9 L-69.6 16.6 L-67.2 12.0 L-66.2 13.6 L-63.8 10.1 L-62.9 10.9 L-61.1 8.8 L-61.3 10.6 L-64.2 14.1 L-65.1 18.4 L-63.7 23.5 L-65.3 30.2 L-63.8 33.0 L-59.8 33.9 L-56.3 27.5 L-55.0 32.2 L-53.3 32.6 L-55.8 36.2 L-55.7 41.6 L-61.3 46.1 L-63.5 45.9 L-67.0 51.0 Z" fill="#a9d3ea" stroke="#7fb6d6" stroke-width="1"/><path d="M25.1 109.1 L19.8 107.5 L21.3 93.6 L25.0 95.7 L26.6 103.4 L25.1 109.1 Z" fill="#a9d3ea" stroke="#7fb6d6" stroke-width="1"/><path d="M44.3 167.5 L41.8 164.2 L38.2 165.6 L37.0 163.2 L33.8 162.2 L35.2 157.4 L37.8 154.2 L36.5 151.7 L38.4 153.3 L42.2 148.8 L43.4 150.6 L47.2 144.0 L50.1 145.4 L50.6 148.2 L45.3 153.6 L46.6 157.1 L48.8 154.7 L49.3 157.4 L46.7 159.0 L47.0 161.3 L45.4 163.0 L44.3 167.5 Z" fill="#a9d3ea" stroke="#7fb6d6" stroke-width="1"/>
<line x1="104.0" y1="139.2" x2="155.2" y2="-40.0" stroke="#888" stroke-width="6" stroke-linecap="round" opacity="0.7"/>
<path d="M-158.0 -327.9L-163.2 -327.4M-158.0 -327.9L-155.9 -328.1M-174.6 -326.1L-169.1 -326.7M-169.1 -326.7L-163.2 -327.4M-174.6 -326.1L-180.1 -325.0M-180.1 -325.0L-185.9 -323.0M-185.9 -323.0L-190.8 -320.9M-190.8 -320.9L-192.8 -320.0M-138.6 -305.8L-140.3 -305.2M-109.0 -307.9L-106.3 -308.3M-109.0 -307.9L-111.3 -305.4M-95.9 -310.3L-100.6 -308.4M-95.9 -310.3L-93.0 -310.1M-106.3 -308.3L-100.6 -308.4M-100.6 -308.4L-102.2 -302.2M-106.3 -308.3L-110.2 -304.6M-92.1 -309.7L-93.0 -310.1M-140.3 -305.2L-141.9 -304.5M-111.3 -305.4L-112.0 -304.2M-111.3 -305.4L-110.2 -304.6M-110.2 -304.6L-108.6 -300.6M-110.2 -304.6L-112.0 -304.2M-108.6 -300.6L-109.9 -297.0M-102.2 -302.2L-102.8 -296.8M-102.2 -302.2L-105.6 -300.0M-108.6 -300.6L-105.6 -300.0M-105.6 -300.0L-107.4 -297.2M-109.9 -297.0L-111.9 -295.9M-111.9 -295.9L-112.3 -294.7M-109.9 -297.0L-107.4 -297.2M-109.9 -297.0L-110.9 -294.2M-102.8 -296.8L-104.9 -294.2M-102.8 -296.8L-103.4 -293.9M-107.4 -297.2L-107.6 -294.9M-104.9 -294.2L-107.6 -294.9M-112.3 -294.7L-110.9 -294.2M-110.9 -294.2L-107.6 -294.9M-110.9 -294.2L-111.7 -293.0M-104.9 -294.2L-105.1 -291.2M-103.4 -293.9L-105.1 -291.2M-170.6 -282.3L-171.2 -281.5M-105.1 -291.2L-106.0 -289.4M-105.1 -291.2L-106.0 -289.4M-449.0 -249.3L-449.0 -249.2M-106.0 -289.4L-106.0 -289.4M-171.2 -281.5L-171.9 -280.7M-163.5 -272.3L-164.1 -271.4M-164.1 -271.4L-164.7 -270.4M-192.8 -262.7L-196.0 -261.2M-196.0 -261.2L-204.1 -257.1M-204.1 -257.1L-213.6 -250.3M-213.6 -250.3L-221.9 -240.5M-455.5 -224.3L-455.5 -224.3M-221.9 -240.5L-227.5 -230.6M-211.3 -243.1L-214.0 -240.4M-214.0 -240.4L-219.3 -235.1M-219.3 -235.1L-221.9 -232.4M-227.5 -230.6L-229.6 -226.2M-467.6 -193.5L-467.7 -193.4M-257.6 -204.1L-254.5 -203.8M-237.3 -208.4L-240.8 -207.0M-254.5 -203.8L-240.8 -207.0M-240.8 -207.0L-235.9 -207.0M-235.9 -207.0L-234.5 -206.8M-46.8 -221.6L-46.7 -220.9M-45.0 -218.6L-45.8 -216.9M-254.5 -203.8L-258.1 -201.9M-46.7 -220.9L-46.6 -219.3M-46.6 -219.3L-46.4 -217.2M-58.3 -215.3L-60.7 -215.6M-46.4 -217.2L-46.9 -215.1M-45.8 -216.9L-46.4 -217.2M-58.3 -215.3L-57.7 -212.8M-65.6 -215.5L-63.9 -215.5M-65.6 -215.5L-65.3 -214.1M-60.7 -215.6L-63.9 -215.5M-60.7 -215.6L-62.7 -214.3M-45.8 -216.9L-46.9 -215.1M-45.8 -216.9L-46.8 -214.1M-60.7 -215.6L-60.5 -214.0M-63.9 -215.5L-65.3 -214.1M-63.9 -215.5L-62.7 -214.3M-62.7 -214.3L-60.5 -214.0M-46.9 -215.1L-48.6 -211.6M-65.3 -214.1L-62.7 -214.3M-65.3 -214.1L-66.1 -209.3M-62.7 -214.3L-63.9 -210.7M-46.8 -214.1L-48.6 -211.6M-60.5 -214.0L-59.3 -211.4M-57.7 -212.8L-59.3 -211.4M-57.7 -212.8L-56.2 -210.0M-53.9 -211.0L-51.9 -210.3M-50.3 -211.2L-51.9 -210.3M-56.2 -210.0L-53.9 -211.0M-50.3 -211.2L-48.6 -211.6M-48.6 -211.6L-50.7 -207.5M-66.1 -209.3L-67.2 -205.7M-51.9 -210.3L-53.6 -208.9M-66.1 -209.3L-63.9 -210.7M-59.3 -211.4L-59.7 -207.6M-56.2 -210.0L-59.7 -207.6M-66.1 -209.3L-66.6 -206.5M-56.2 -210.0L-53.6 -208.9M-56.2 -210.0L-56.7 -207.2M-63.9 -210.7L-62.3 -208.8M-53.6 -208.9L-52.8 -205.0M-51.9 -210.3L-50.7 -207.5M-59.7 -207.6L-57.7 -205.0M-59.7 -207.6L-62.3 -208.8M-3.9 -205.1L-4.0 -205.1M-59.7 -207.6L-60.9 -204.1M-56.7 -207.2L-57.7 -205.0M-50.7 -207.5L-52.1 -202.3M8.3 -206.8L8.1 -206.3M8.3 -206.8L8.1 -206.3M-67.2 -205.7L-66.6 -206.5M-66.6 -206.5L-66.6 -204.1M-57.7 -205.0L-57.3 -203.3M8.1 -206.3L8.1 -206.3M8.1 -206.3L8.0 -205.8M8.1 -206.3L8.0 -205.8M-67.2 -205.7L-67.7 -202.5M-60.9 -204.1L-61.2 -201.3M-52.8 -205.0L-52.1 -202.3M-52.1 -202.3L-52.4 -199.6M-66.6 -204.1L-67.2 -202.2M-67.7 -202.5L-67.2 -202.2M-61.2 -201.3L-61.2 -200.2M-6.6 -196.7L-7.4 -194.6M-6.6 -196.7L-5.6 -196.2M-7.4 -194.6L-5.0 -191.9M-7.4 -194.6L-9.5 -192.3M-5.6 -196.2L-5.0 -194.1M-81.2 -195.2L-83.3 -194.5M-81.2 -195.2L-78.9 -194.0M-78.9 -194.0L-76.3 -191.4M-83.3 -194.5L-85.0 -191.4M-9.5 -192.3L-10.6 -187.6M-5.0 -191.9L-5.0 -194.1M-115.1 -187.0L-113.7 -187.3M-76.3 -191.4L-75.5 -191.6M-75.5 -191.6L-75.0 -191.0M-5.0 -191.9L-2.9 -188.2M-112.5 -187.6L-113.7 -187.3M-112.5 -187.6L-112.5 -187.5M-75.0 -191.0L-72.7 -191.5M-336.0 -161.2L-334.4 -162.8M-336.0 -161.2L-339.8 -157.0M-72.7 -191.5L-70.7 -190.3M-252.1 -163.7L-251.3 -163.3M-85.0 -191.4L-85.8 -187.0M-76.3 -191.4L-75.0 -191.0M-76.3 -191.4L-76.0 -187.7M-113.7 -187.3L-112.5 -187.5M-105.8 -184.3L-105.9 -184.2M-60.2 -188.1L-58.6 -188.4M-70.7 -190.3L-68.4 -187.3M-10.6 -187.6L-10.9 -180.8M-58.6 -188.4L-58.8 -186.1M-2.9 -188.2L-2.1 -186.8M-75.0 -191.0L-76.0 -187.7M-76.0 -187.7L-77.7 -184.9M-10.9 -180.8L-10.6 -173.2M-68.4 -187.3L-68.4 -183.6M-68.4 -187.3L-65.4 -186.1M-68.4 -183.6L-65.4 -186.1M-60.2 -188.1L-65.4 -186.1M-60.2 -188.1L-58.8 -186.1M5.0 -184.7L5.5 -184.2M-85.8 -187.0L-85.6 -185.2M-85.6 -185.2L-85.6 -184.2M-339.8 -157.0L-343.6 -153.2M-339.8 -157.0L-340.4 -155.3M-85.8 -187.0L-85.9 -184.8M-65.4 -186.1L-66.3 -184.3M-65.4 -186.1L-64.5 -184.0M-340.4 -155.3L-339.3 -155.3M-343.6 -153.2L-340.4 -155.3M-77.7 -184.9L-79.3 -182.2M-76.0 -187.7L-74.8 -183.7M-251.3 -163.3L-250.5 -162.9M-58.8 -186.1L-59.0 -183.5M-58.8 -186.1L-60.3 -182.6M4.4 -183.9L5.0 -184.7M-74.8 -183.7L-72.2 -182.5M-66.3 -184.3L-64.5 -184.0M-74.8 -183.7L-74.7 -180.8M-68.4 -183.6L-72.2 -182.5M4.4 -183.9L5.5 -184.2M5.5 -184.2L6.1 -182.2M-350.2 -151.3L-348.2 -151.8M-350.2 -151.3L-350.7 -150.4M-350.2 -151.3L-349.7 -150.8M-85.6 -184.2L-85.9 -184.8M-79.3 -182.2L-79.8 -181.4M-79.3 -182.2L-80.0 -180.0M-68.4 -183.6L-69.4 -177.6M-68.4 -183.6L-66.3 -184.3M-66.3 -184.3L-67.3 -183.6M-343.6 -153.2L-348.2 -151.8M-348.2 -151.8L-349.7 -150.8M-208.3 -161.4L-207.5 -160.8M-79.8 -181.4L-80.0 -180.0M-343.6 -153.2L-345.4 -149.3M-68.4 -183.6L-67.3 -183.6M-60.3 -182.6L-62.2 -181.0M-60.3 -182.6L-60.3 -181.7M-59.0 -183.5L-60.3 -181.7M4.4 -183.9L2.9 -183.5M4.4 -183.9L6.1 -182.2M-64.5 -184.0L-62.2 -181.0M-350.7 -150.4L-349.7 -149.2M-72.2 -182.5L-72.3 -179.4M-349.7 -150.8L-349.7 -149.2M-74.7 -180.8L-73.9 -177.9M-62.2 -181.0L-60.3 -181.7M-349.7 -149.2L-347.8 -146.7M-345.4 -149.3L-347.8 -146.7M-207.5 -160.8L-206.9 -161.2M-72.3 -179.4L-73.9 -177.9M-207.5 -160.8L-208.3 -161.0M-207.5 -160.8L-206.7 -159.7M-80.0 -180.0L-80.1 -176.0M6.1 -182.2L6.9 -177.2M-207.5 -160.8L-206.7 -159.7M-72.3 -179.4L-70.7 -177.0M-0.2 -172.7L0.1 -171.4M6.9 -177.2L6.3 -171.9M-347.8 -146.7L-350.5 -143.5M-81.8 -174.0L-80.8 -173.7M-62.2 -181.0L-63.9 -177.4M-9.2 -170.7L-9.8 -170.1M-73.9 -177.9L-74.9 -173.5M-354.6 -143.8L-356.2 -144.0M-354.6 -143.8L-354.9 -143.3M-350.5 -143.5L-354.6 -143.8M-206.7 -159.7L-206.7 -159.7M-356.2 -144.0L-354.9 -143.3M-63.9 -177.4L-65.5 -175.5M-335.8 -145.1L-336.8 -144.1M-80.1 -176.0L-78.6 -174.2M-80.1 -176.0L-80.8 -173.7M-69.4 -177.6L-70.7 -177.0M-69.4 -177.6L-68.6 -173.5M-354.9 -143.3L-351.9 -142.5M-70.7 -177.0L-69.8 -174.8M-63.9 -177.4L-64.5 -176.3M-336.8 -144.1L-338.7 -141.6M-65.5 -175.5L-68.6 -173.5M-74.9 -173.5L-78.6 -174.2M-80.8 -173.7L-78.6 -174.2M-74.9 -173.5L-73.7 -172.7M-65.5 -175.5L-64.5 -176.3M6.3 -171.9L3.7 -171.7M-10.6 -173.2L-9.8 -170.1M-10.6 -173.2L-10.3 -169.5M-9.8 -170.1L-10.3 -169.5M-68.6 -173.5L-68.7 -171.4M-350.5 -143.5L-351.9 -142.5M-74.9 -173.5L-76.2 -171.2M-285.6 -142.2L-285.3 -141.6M3.7 -171.7L2.7 -171.8M-80.8 -173.7L-80.0 -171.2M-68.6 -173.5L-69.8 -174.8M-68.6 -173.5L-68.7 -171.4M-9.8 -170.1L-9.6 -167.0M-10.3 -169.5L-9.6 -167.0M-338.7 -141.6L-339.9 -138.2M0.1 -171.4L-1.0 -167.6M0.1 -171.4L2.7 -171.8M6.3 -171.9L2.7 -171.8M6.3 -171.9L6.0 -170.5M-9.6 -167.0L-8.1 -162.5M-1.0 -167.6L-2.9 -165.4M-1.0 -167.6L-0.6 -166.8M-339.9 -138.2L-340.9 -136.7M-339.9 -138.2L-337.8 -136.9M-80.0 -171.2L-78.2 -170.3M-246.7 -141.3L-245.5 -141.0M-76.2 -171.2L-78.2 -170.3M6.3 -171.9L11.7 -171.3M11.7 -171.3L14.0 -171.2M-337.8 -136.9L-333.6 -136.8M-333.6 -136.8L-331.9 -136.8M-340.9 -136.7L-339.9 -136.2M-337.8 -136.9L-339.9 -136.2M-285.3 -141.6L-285.6 -141.2M-285.3 -141.6L-284.7 -141.6M-68.7 -171.4L-68.7 -171.4M-2.9 -165.4L-4.9 -163.6M-237.4 -143.8L-241.5 -142.6M-233.9 -144.1L-237.4 -143.8M-233.9 -144.1L-231.4 -143.8M-4.9 -163.6L-6.8 -161.8M-8.1 -162.5L-6.8 -161.8M-8.1 -162.5L-7.1 -159.6M-231.4 -143.8L-230.4 -143.6M-245.5 -141.0L-241.5 -142.6M-245.5 -141.0L-246.3 -139.9M-6.8 -161.8L-7.1 -159.6M-322.3 -128.3L-322.3 -128.2M-305.7 -128.8L-304.8 -128.5M3.0 -159.8L2.8 -158.5M21.1 -167.4L25.6 -171.0M21.1 -167.4L10.8 -159.2M-7.1 -159.6L-5.5 -156.2M1.5 -157.8L0.5 -155.8M2.8 -158.5L1.5 -157.8M-304.8 -128.5L-304.0 -128.1M-5.5 -156.2L-3.0 -155.1M2.8 -158.5L4.3 -155.3M0.5 -155.8L-3.0 -155.1M0.5 -155.8L4.3 -155.3M10.8 -159.2L4.3 -155.3M4.3 -155.3L5.3 -149.5M10.8 -159.2L8.9 -157.1M-478.0 -83.8L-480.2 -71.6M5.3 -149.5L5.9 -147.2M-332.4 -114.3L-334.8 -113.7M-334.8 -113.7L-334.9 -111.8M-332.4 -114.3L-331.1 -115.9M-332.4 -114.3L-332.1 -110.5M100.0 -137.8L100.0 -137.8M-334.9 -111.8L-332.1 -110.5M-332.1 -110.5L-328.4 -106.8M-328.4 -106.8L-325.9 -104.7M-325.9 -104.7L-325.2 -104.0M434.7 -72.3L434.8 -72.2M411.7 -80.0L414.1 -77.2M411.7 -80.0L408.7 -81.3M408.7 -81.3L404.8 -80.9M400.4 -78.3L404.8 -80.9M414.1 -77.2L416.5 -75.4M414.1 -77.2L414.5 -74.7M416.5 -75.4L417.7 -76.0M416.5 -75.4L417.0 -71.3M400.4 -78.3L396.9 -74.0M-277.3 -76.9L-276.3 -75.3M2.0 -116.5L2.0 -116.5M2.0 -116.5L3.3 -115.9M2.0 -116.5L3.3 -115.9M414.5 -74.7L417.0 -71.3M417.0 -71.3L422.6 -61.9M3.3 -115.9L4.9 -115.1M-276.3 -75.3L-271.6 -74.3M-276.3 -75.3L-277.9 -71.3M-21.2 -108.5L-20.7 -106.9M378.8 -77.3L380.3 -76.7M-271.6 -74.3L-267.3 -71.5M380.3 -76.7L383.3 -74.3M396.9 -74.0L394.9 -71.3M396.9 -74.0L397.7 -71.1M394.9 -71.3L397.7 -71.1M397.7 -71.1L403.9 -66.9M33.1 -113.6L32.9 -113.1M33.1 -113.6L33.3 -112.9M378.8 -77.3L379.9 -76.3M-277.9 -71.3L-278.1 -69.7M-277.9 -71.3L-276.7 -68.2M403.9 -66.9L411.2 -61.9M383.3 -74.3L379.9 -76.3M383.3 -74.3L391.0 -69.7M21.1 -110.6L23.3 -109.9M422.6 -61.9L433.3 -54.1M433.3 -54.1L437.8 -50.6M422.6 -61.9L417.4 -59.3M-267.3 -71.5L-265.1 -67.8M-480.2 -71.6L-491.2 -48.9M-480.2 -71.6L-476.2 -60.7M394.9 -71.3L391.0 -69.7M32.9 -113.1L32.9 -111.8M391.0 -69.7L393.9 -65.8M-278.1 -69.7L-276.7 -68.2M-276.7 -68.2L-272.4 -64.8M-476.2 -60.7L-474.4 -47.1M411.2 -61.9L417.4 -59.3M417.4 -59.3L420.3 -59.0M417.4 -59.3L415.5 -49.7M-265.1 -67.8L-265.6 -64.6M33.3 -112.9L32.9 -111.8M420.3 -59.0L422.5 -55.9M32.9 -111.8L31.2 -109.7M-20.7 -106.9L-20.3 -105.5M23.3 -109.9L28.8 -108.2M385.0 -61.5L385.4 -58.7M411.2 -61.9L411.9 -60.4M-20.7 -106.9L-20.3 -105.5M393.9 -65.8L394.8 -65.1M393.9 -65.8L394.2 -65.0M31.2 -109.7L28.8 -108.2M-272.4 -64.8L-268.4 -63.4M422.5 -55.9L423.4 -52.1M-439.8 -56.3L-438.4 -55.6M-265.6 -64.6L-268.4 -63.4M-20.3 -105.5L-20.3 -105.5M28.8 -108.2L32.6 -104.5M394.7 -56.4L394.1 -54.7M423.4 -52.1L423.5 -50.3M-438.4 -55.6L-435.3 -53.5M-435.3 -53.5L-432.5 -50.1M32.6 -104.5L34.3 -102.3M32.6 -104.5L34.6 -102.2M385.4 -58.7L386.5 -56.0M-432.5 -50.1L-432.4 -49.1M-432.5 -50.1L-431.2 -47.4M385.4 -58.7L385.5 -54.2M-432.4 -49.1L-432.2 -47.9M34.6 -102.2L35.9 -100.2M394.1 -54.7L391.7 -53.8M394.1 -54.7L394.5 -51.2M83.2 -105.9L84.8 -105.7M386.5 -56.0L388.0 -54.4M386.5 -56.0L385.5 -54.2M415.5 -49.7L413.0 -38.0M34.3 -102.3L35.9 -100.2M391.7 -53.8L388.0 -54.4M385.5 -54.2L388.0 -54.4M391.7 -53.8L393.0 -52.3M84.8 -105.7L87.9 -105.4M87.9 -105.4L89.4 -105.2M394.5 -51.2L393.0 -52.3M394.5 -51.2L395.5 -46.3M-431.2 -47.4L-432.2 -47.9M385.5 -54.2L384.3 -53.3M385.5 -54.2L385.2 -52.1M-428.0 -44.4L-428.8 -45.0M-428.0 -44.4L-429.0 -43.6M35.9 -100.2L36.8 -98.7M-431.2 -47.4L-428.8 -45.0M-491.2 -48.9L-503.4 -23.3M-428.8 -45.0L-429.0 -43.6M-429.0 -43.6L-432.0 -41.2M395.5 -46.3L395.9 -41.5M413.0 -38.0L413.5 -38.9M413.0 -38.0L408.7 -24.6M-474.4 -47.1L-473.8 -41.2M347.6 -52.9L348.7 -50.8M-432.0 -41.2L-433.2 -40.5M-433.2 -40.5L-433.2 -40.5M-432.0 -41.2L-433.2 -40.5M-483.9 -39.8L-481.8 -38.0M-483.9 -39.8L-484.8 -40.4M395.9 -41.5L397.8 -38.9M395.9 -41.5L393.7 -38.6M-481.8 -38.0L-479.5 -35.6M-488.9 -33.8L-488.3 -32.8M393.7 -38.6L390.7 -33.8M397.8 -38.9L399.5 -36.7M399.5 -36.7L400.3 -35.9M348.7 -50.8L351.0 -45.5M390.7 -33.8L390.9 -35.6M-468.5 -28.3L-469.1 -27.7M-479.5 -35.6L-478.6 -34.3M351.0 -45.5L353.0 -39.1M390.7 -33.8L386.5 -23.5M-488.3 -32.8L-487.5 -32.1M-488.3 -32.8L-488.4 -32.5M408.3 -24.5L408.5 -24.2M-472.5 -28.6L-471.4 -28.3M353.0 -39.1L353.8 -33.8M-289.5 -30.9L-320.6 -27.9M-320.6 -27.9L-350.2 -25.0M-350.2 -25.0L-362.4 -23.8M-289.5 -30.9L-280.2 -32.1M-289.5 -30.9L-285.4 -30.0M-285.4 -30.0L-289.1 -27.7M-285.4 -30.0L-284.5 -28.7M-469.1 -27.7L-471.4 -28.3M408.7 -24.6L408.5 -24.2M-469.1 -27.7L-468.5 -26.8M408.7 -24.6L403.8 -15.0M-284.5 -28.7L-282.4 -27.2M353.8 -33.8L354.0 -31.8M-289.1 -27.7L-292.3 -25.6M-289.1 -27.7L-288.0 -26.7M-440.6 -22.2L-442.2 -20.8M-284.5 -28.7L-288.0 -26.7M-444.1 -22.0L-445.6 -21.3M-442.2 -20.8L-444.1 -22.0M-292.3 -25.6L-292.4 -23.2M-282.4 -27.2L-281.4 -23.9M-288.0 -26.7L-289.9 -23.4M-445.6 -21.3L-445.3 -19.8M386.5 -23.5L382.5 -13.9M-292.4 -23.2L-289.9 -23.4M-289.9 -23.4L-288.6 -21.2M-281.4 -23.9L-280.0 -22.4M-442.2 -20.8L-445.3 -19.8M-442.2 -20.8L-441.8 -16.1M-292.4 -23.2L-292.0 -20.6M-281.4 -23.9L-283.2 -21.1M-445.3 -19.8L-446.3 -18.6M-522.2 -24.6L-519.2 -23.1M-522.2 -24.6L-523.7 -24.9M-519.2 -23.1L-517.2 -19.9M-280.0 -22.4L-277.2 -21.6M-280.0 -22.4L-283.2 -21.1M-292.0 -20.6L-294.0 -18.2M-288.6 -21.2L-292.0 -20.6M-473.3 -17.4L-474.9 -15.8M-419.7 -13.7L-421.1 -12.9M-288.6 -21.2L-283.2 -21.1M-277.2 -21.6L-276.4 -19.6M-283.2 -21.1L-283.3 -19.6M-441.8 -16.1L-443.0 -14.6M-421.1 -12.9L-422.5 -12.1M-517.2 -19.9L-510.0 -19.9M-503.4 -23.3L-510.0 -19.9M403.8 -15.0L399.1 -9.5M-294.0 -18.2L-296.0 -16.1M-517.2 -19.9L-525.0 -16.4M-503.4 -23.3L-503.9 -18.5M-503.4 -23.3L-508.1 -15.9M-276.4 -19.6L-277.3 -16.2M-443.0 -14.6L-444.8 -13.3M-441.8 -16.1L-440.5 -15.7M-441.8 -16.1L-444.8 -13.3M-474.9 -15.8L-477.2 -12.1M-444.8 -13.3L-451.0 -9.9M-296.0 -16.1L-298.0 -14.7M-277.3 -16.2L-278.6 -12.6M-508.1 -15.9L-512.7 -7.9M-298.0 -14.7L-298.9 -14.1M399.1 -9.5L395.3 -6.1M-525.0 -16.4L-532.9 -13.7M-512.7 -7.9L-516.4 4.5M-451.0 -9.9L-458.9 -8.0M-477.2 -12.1L-481.4 -12.0M382.5 -13.9L380.3 -6.6M-477.2 -12.1L-468.6 -8.8M364.4 -10.4L363.4 -8.6M-532.9 -13.7L-536.4 -12.6M-278.6 -12.6L-279.2 -11.0M395.3 -6.1L391.5 -2.3M380.3 -6.6L380.4 -1.4M-458.9 -8.0L-468.6 -8.8M254.5 -27.1L255.6 -26.0M391.5 -2.3L386.3 -0.3M391.5 -2.3L391.7 0.8M363.4 -8.6L362.1 -6.1M363.4 -8.6L362.7 -5.9M391.7 0.8L391.6 2.2M362.1 -6.1L361.8 -2.0M362.1 -6.1L362.7 -5.9M362.7 -5.9L362.9 -1.7M380.4 -1.4L386.3 -0.3M386.3 -0.3L386.2 4.2M24.7 -55.2L23.6 -54.5M380.4 -1.4L376.1 1.1M255.6 -26.0L256.8 -24.8M386.2 4.2L385.1 9.0M372.0 2.3L372.2 2.4M376.1 1.1L372.2 2.4M361.8 -2.0L362.9 -1.7M361.8 -2.0L362.7 2.3M362.9 -1.7L365.0 0.0M365.0 0.0L366.3 2.5M23.6 -54.5L20.9 -53.7M362.9 -1.7L362.7 2.3M20.9 -53.7L19.9 -53.3M19.9 -53.3L20.5 -51.9M20.9 -53.7L20.5 -51.9M23.6 -54.5L22.7 -53.1M366.3 2.5L368.8 3.3M372.2 2.4L368.8 3.3M355.0 7.3L355.5 8.2M368.8 3.3L367.0 4.6M410.5 19.8L407.1 23.7M20.5 -51.9L22.7 -53.1M362.7 2.3L366.3 2.5M366.3 2.5L367.0 4.6M362.7 2.3L360.4 6.1M379.6 9.5L380.6 10.7M20.5 -51.9L19.6 -49.5M20.5 -51.9L20.1 -50.3M362.7 2.3L362.8 6.3M367.0 4.6L365.1 7.7M385.1 9.0L382.6 13.2M19.6 -49.5L20.1 -50.3M360.4 6.1L358.5 7.6M360.4 6.1L360.5 7.3M19.6 -49.5L18.2 -47.7M18.2 -47.7L17.6 -47.0M273.9 -11.3L277.5 -7.8M362.8 6.3L360.5 7.3M362.8 6.3L365.1 7.7M365.1 7.7L365.8 12.5M380.6 10.7L382.6 13.2M277.5 -7.8L288.4 0.8M358.5 7.6L360.5 7.3M355.5 8.2L358.5 7.6M365.8 12.5L363.1 15.0M355.5 8.2L354.6 8.5M355.5 8.2L355.5 8.8M382.6 13.2L380.5 18.9M407.1 23.7L399.6 32.9M365.8 12.5L371.3 17.1M365.8 12.5L364.9 15.3M-516.4 4.5L-517.0 20.9M363.1 15.0L364.9 15.3M363.1 15.0L358.6 21.5M288.4 0.8L312.5 11.6M312.5 11.6L336.5 21.1M288.4 0.8L284.3 0.4M364.9 15.3L365.9 22.5M374.5 18.5L377.7 19.2M371.3 17.1L374.5 18.5M374.5 18.5L375.0 20.8M380.5 18.9L377.7 19.2M377.7 19.2L377.1 21.3M380.5 18.9L378.5 23.0M371.3 17.1L374.1 22.0M-284.5 16.9L-285.7 17.5M-284.5 16.9L-283.0 16.4M-281.2 15.8L-283.0 16.4M-285.7 17.5L-283.0 16.4M375.0 20.8L377.1 21.3M377.1 21.3L378.5 23.0M-285.7 17.5L-287.4 18.3M375.0 20.8L374.1 22.0M374.1 22.0L375.8 26.0M336.5 21.1L346.0 24.3M336.5 21.1L344.2 25.6M378.5 23.0L375.8 26.0M358.6 21.5L354.4 24.9M358.6 21.5L358.7 25.5M365.9 22.5L369.5 26.3M365.9 22.5L362.7 26.5M375.8 26.0L372.4 29.6M-517.0 20.9L-512.8 38.6M369.5 26.3L372.4 29.6M354.4 24.9L351.6 25.7M354.4 24.9L354.7 27.4M358.7 25.5L362.7 26.5M362.7 26.5L362.4 31.1M372.4 29.6L370.5 34.4M346.0 24.3L351.6 25.7M351.6 25.7L354.7 27.4M346.0 24.3L344.2 25.6M358.7 25.5L354.7 27.4M354.7 27.4L356.8 31.2M399.6 32.9L392.3 42.9M362.4 31.1L361.5 32.8M362.4 31.1L362.1 33.7M344.2 25.6L343.6 30.1M361.5 32.8L360.0 33.1M361.5 32.8L362.1 33.7M370.5 34.4L369.0 38.8M356.8 31.2L360.0 33.1M362.1 33.7L360.0 33.1M343.6 30.1L341.6 34.1M362.1 33.7L365.0 36.6M-295.4 36.3L-295.2 36.6M369.0 38.8L365.0 36.6M-294.7 37.6L-294.9 37.3M369.0 38.8L373.5 44.8M392.3 42.9L387.0 50.2M341.6 34.1L340.9 38.6M-295.2 36.6L-294.9 37.3M340.9 38.6L339.5 43.1M340.9 38.6L344.4 41.6M373.5 44.8L378.4 50.2M344.4 41.6L343.8 43.8M344.4 41.6L347.8 43.4M387.0 50.2L382.9 53.9M339.5 43.1L343.8 43.8M339.5 43.1L335.1 49.4M347.8 43.4L350.4 44.0M343.8 43.8L347.8 43.4M378.4 50.2L382.9 53.9M382.9 53.9L383.0 56.1M343.8 43.8L340.3 46.9M335.1 49.4L340.3 46.9M-270.3 46.5L-271.4 47.5M-271.2 47.7L-270.3 46.5M-439.2 51.7L-445.6 54.4M335.1 49.4L325.6 57.4M-271.4 47.5L-273.6 50.0M-271.2 47.7L-273.6 50.0M-512.8 38.6L-504.5 56.6M-641.0 21.8L-640.9 22.6M-641.0 21.8L-642.8 23.0M-640.9 22.6L-642.3 24.5M-445.6 54.4L-461.0 61.0M-461.0 61.0L-478.4 68.4M-478.4 68.4L-493.5 74.8M-273.6 50.0L-278.4 54.8M-642.8 23.0L-645.7 24.6M-645.7 24.6L-647.2 27.0M-642.8 23.0L-642.3 24.5M-504.5 56.6L-493.5 74.8M-637.0 28.5L-638.7 28.5M-637.0 28.5L-637.0 28.5M-642.3 24.5L-643.3 27.5M-647.2 27.0L-648.8 27.6M325.6 57.4L322.4 59.3M325.6 57.4L324.6 59.2M-638.7 28.5L-637.0 28.5M-278.4 54.8L-280.4 56.8M-638.7 28.5L-643.3 27.5M-647.2 27.0L-643.3 27.5M-611.2 47.0L-611.5 47.7M-384.1 72.6L-383.3 73.9M306.6 79.1L305.8 80.8M-383.3 73.9L-381.2 77.8M-381.2 77.8L-377.6 83.5M-611.5 47.7L-611.9 48.3M-553.5 64.1L-554.4 65.9M-550.5 66.2L-552.0 67.8M-560.0 65.3L-559.1 66.5M-604.5 57.0L-604.9 58.5M-554.4 65.9L-559.1 66.5M-377.6 83.5L-370.7 89.6M-554.4 65.9L-552.0 67.8M-554.4 65.9L-554.9 69.9M305.8 80.8L305.0 82.6M-559.1 66.5L-560.6 70.4M-493.5 74.8L-498.9 81.2M-493.5 74.8L-488.1 89.8M-604.9 58.5L-605.3 59.7M-604.9 58.5L-604.4 60.3M-552.0 67.8L-554.9 69.9M-552.0 67.8L-551.8 72.3M-554.9 69.9L-559.4 73.3M-554.9 69.9L-553.5 72.0M-602.2 61.3L-601.1 61.5M-604.4 60.3L-602.2 61.3M-370.7 89.6L-375.2 91.0M-370.7 89.6L-354.3 91.7M340.2 93.1L340.3 94.8M-498.9 81.2L-500.9 83.8M-605.3 59.7L-604.4 60.3M-551.8 72.3L-553.5 72.0M-551.8 72.3L-550.2 76.0M-622.6 60.1L-624.0 62.3M-622.6 60.1L-621.0 60.3M-354.3 91.7L-346.9 92.3M-560.6 70.4L-559.4 73.3M-559.4 73.3L-559.5 77.0M-548.7 77.7L-550.2 76.0M-550.2 76.0L-551.0 77.1M-548.7 77.7L-547.4 78.5M-617.1 63.7L-617.9 63.5M-548.7 77.7L-551.0 77.1M-621.0 60.3L-620.1 62.9M-551.0 77.1L-555.4 77.3M340.3 94.8L340.3 98.7M-559.5 77.0L-560.8 77.9M-559.5 77.0L-555.4 77.3M-624.0 62.3L-624.0 64.6M-488.1 89.8L-483.3 102.1M-620.1 62.9L-622.4 64.8M-617.9 63.5L-620.1 62.9M340.3 98.7L340.3 102.9M-624.0 64.6L-622.4 64.8M-525.2 92.1L-528.6 95.6M340.3 102.9L340.3 104.2M340.3 102.9L340.3 104.2M340.3 104.2L340.3 104.2M-602.2 77.2L-602.3 77.3M-255.3 95.5L-255.1 95.8M-377.5 119.1L-376.1 126.3M-255.1 95.8L-254.9 96.1M291.9 106.2L286.4 109.8M291.9 106.2L294.0 104.6M-528.6 95.6L-535.3 101.6M-528.6 95.6L-530.7 99.7M-483.3 102.1L-482.0 104.5M-483.3 102.1L-482.5 104.8M-480.3 110.6L-481.5 112.1M-535.3 101.6L-546.8 111.0M-535.3 101.6L-530.7 99.7M-530.7 99.7L-528.4 103.5M272.9 113.9L272.7 114.8M-456.1 110.6L-451.9 111.2M-456.1 110.6L-458.0 112.1M-451.9 111.2L-446.5 113.9M286.4 109.8L279.6 112.8M-524.1 106.6L-525.5 105.9M-446.5 113.9L-440.8 118.3M-458.0 112.1L-457.5 115.6M-440.8 118.3L-436.6 121.8M-436.6 121.8L-434.7 126.1M272.7 114.8L279.6 112.8M-528.4 103.5L-525.5 105.9M-305.2 115.0L-305.2 115.0M-305.2 115.0L-306.2 116.6M-484.9 114.2L-489.6 119.6M-481.5 112.1L-484.9 114.2M-481.5 112.1L-481.9 115.0M-457.5 115.6L-455.2 121.2M-305.2 115.0L-306.2 116.6M272.7 114.8L265.1 118.7M-440.8 118.3L-440.7 119.3M-481.9 115.0L-482.4 116.5M265.1 118.7L258.4 122.1M-455.2 121.2L-452.9 128.3M-306.2 116.6L-308.8 120.4M-489.6 119.6L-494.5 127.3M-293.5 119.5L-295.2 121.0M-293.5 119.5L-292.7 120.2M-308.8 120.4L-309.9 122.1M-295.2 121.0L-292.7 120.2M-292.7 120.2L-290.9 122.1M-295.2 121.0L-297.0 122.5M-295.2 121.0L-297.1 123.6M258.4 122.1L255.6 123.5M-285.2 120.7L-287.4 122.6M-284.2 119.8L-285.2 120.7M-434.7 126.1L-434.4 128.3M-290.9 122.1L-289.4 123.3M-297.0 122.5L-297.1 123.6M-297.1 123.6L-297.3 126.2M-561.5 113.0L-561.4 114.0M-561.5 113.0L-560.9 113.8M-546.8 111.0L-558.1 117.7M-376.1 126.3L-373.0 143.1M-287.4 122.6L-289.4 123.3M-326.0 129.7L-330.1 133.3M-326.0 129.7L-324.4 128.3M-560.9 113.8L-560.1 115.7M-297.3 126.2L-297.2 127.1M-452.9 128.3L-452.0 135.2M-561.4 114.0L-560.1 115.7M-558.1 117.7L-560.1 115.7M-444.8 138.1L-445.7 139.3M242.8 155.2L242.9 155.3M-336.7 134.4L-335.7 135.1M-558.1 117.7L-569.7 120.2M-330.1 133.3L-332.9 134.8M-330.1 133.3L-333.5 136.6M-452.0 135.2L-452.3 140.8M-494.5 127.3L-497.6 135.0M-335.7 135.1L-332.9 134.8M-332.9 134.8L-333.5 136.6M-335.7 135.1L-335.9 137.5M-333.5 136.6L-335.9 137.5M-450.2 141.2L-450.2 141.4M-261.4 127.8L-261.9 128.2M-261.4 127.8L-261.2 127.9M-569.7 120.2L-584.3 118.4M-261.2 127.9L-261.7 128.4M-497.6 135.0L-498.2 142.0M-335.9 137.5L-336.6 139.6M-599.2 115.3L-584.3 118.4M-599.2 115.3L-609.6 113.4M-261.9 128.2L-261.7 128.4M-333.5 136.6L-335.6 139.3M0.7 114.6L-0.1 115.1M-609.6 113.4L-613.3 112.8M-452.3 140.8L-454.4 144.0M-452.3 140.8L-450.2 141.4M-445.7 139.3L-447.8 142.0M-441.4 144.9L-442.8 145.7M-0.1 115.1L-2.4 114.5M-0.1 115.1L0.0 116.0M-450.2 141.4L-447.8 142.0M-336.6 139.6L-335.6 139.3M-447.8 142.0L-447.6 145.0M-2.4 114.5L-5.7 114.8M-454.4 144.0L-455.9 146.5M-5.7 114.8L-9.6 116.8M-278.7 138.2L-281.2 138.3M-281.2 138.3L-283.1 139.4M-490.1 142.9L-494.5 143.2M-490.1 142.9L-486.1 144.3M-447.6 145.0L-444.6 145.1M-442.8 145.7L-444.6 145.1M-447.6 145.0L-450.3 147.5M-278.7 138.2L-275.8 140.1M-278.7 138.2L-280.7 138.6M-9.6 116.8L-12.3 117.4M-9.6 116.8L-10.2 120.5M-442.8 145.7L-445.9 148.0M-12.3 117.4L-13.5 119.0M-498.2 142.0L-494.5 143.2M-494.5 143.2L-494.2 146.8M-498.2 142.0L-499.3 147.3M-455.9 146.5L-461.2 148.7M-13.5 119.0L-14.9 119.4M-10.2 120.5L-13.5 119.0M-486.1 144.3L-484.6 144.0M-486.1 144.3L-486.3 147.3M-450.3 147.5L-452.9 147.1M-450.3 147.5L-450.0 149.5M-455.9 146.5L-452.9 147.1M-283.1 139.4L-280.7 138.6M-283.1 139.4L-284.7 140.4M-259.5 135.9L-259.9 137.0M-259.9 137.0L-262.5 140.6M-259.9 137.0L-259.5 135.9M-10.2 120.5L-7.9 126.3M-373.0 143.1L-370.3 160.5M-259.5 135.9L-259.5 135.9M-275.8 140.1L-273.8 143.0M-461.2 148.7L-466.2 148.3M-461.2 148.7L-462.8 153.1M-486.3 147.3L-487.6 150.1M-466.2 148.3L-471.2 149.3M-462.8 153.1L-464.8 158.6M-7.9 126.3L-6.9 131.2M-476.0 151.9L-482.8 151.6M-499.3 147.3L-498.3 151.8M-476.0 151.9L-471.2 149.3M-445.9 148.0L-450.0 149.5M-494.2 146.8L-494.1 151.2M-476.0 151.9L-474.4 156.5M-450.0 149.5L-451.6 150.5M-396.9 153.6L-394.5 154.0M-394.5 154.0L-392.1 154.4M-262.5 140.6L-260.1 140.1M-487.6 150.1L-482.8 151.6M-482.8 151.6L-483.7 154.2M-431.3 155.9L-424.4 154.7M-273.8 143.0L-271.0 144.8M-487.6 150.1L-494.1 151.2M-431.3 155.9L-446.8 158.4M-262.5 140.6L-271.0 144.8M-6.9 131.2L-6.7 133.2M-498.3 151.8L-494.1 151.2M-494.1 151.2L-496.6 154.8M46.3 183.8L45.9 185.5M-483.7 154.2L-482.8 157.0M-498.3 151.8L-499.6 155.1M-474.4 156.5L-473.0 157.3M-271.0 144.8L-273.4 147.0M-499.6 155.1L-499.1 157.5M-496.6 154.8L-499.1 157.5M-255.1 143.1L-256.1 144.2M-499.1 157.5L-499.3 161.6M-474.4 156.5L-476.8 158.6M-446.8 158.4L-461.6 160.3M-256.1 144.2L-259.0 146.8M-480.1 158.8L-476.8 158.6M-464.8 158.6L-466.3 161.9M-464.8 158.6L-461.6 160.3M-233.7 141.5L-233.1 142.1M-233.1 142.1L-232.6 142.5M-259.0 146.8L-262.3 149.4M-482.8 157.0L-480.1 158.8M-461.6 160.3L-466.3 161.9M-370.3 160.5L-369.3 163.9M-370.3 160.5L-370.2 164.6M-1.4 151.4L-2.7 153.2M-262.3 149.4L-263.8 150.5M-466.3 161.9L-468.7 163.1M-232.6 142.5L-232.6 142.5M-233.1 142.1L-232.6 142.5M-466.3 161.9L-466.9 166.0M-468.7 163.1L-474.6 163.5M-468.7 163.1L-468.6 164.9M-474.6 163.5L-484.6 164.4M-466.9 166.0L-468.6 164.9M-468.6 164.9L-472.5 167.3M-530.6 158.1L-525.4 160.0M-499.3 161.6L-497.8 165.5M-466.9 166.0L-466.9 173.7M-484.6 164.4L-497.8 165.5M-525.4 160.0L-513.6 164.7M-513.6 164.7L-505.0 164.9M-513.6 164.7L-510.9 169.4M-497.8 165.5L-505.0 164.9M-497.8 165.5L-502.1 171.8M-472.5 167.3L-476.5 169.5M-255.7 153.7L-259.5 155.1M-255.7 153.7L-252.1 153.0M-476.5 169.5L-478.2 170.3M-249.1 153.7L-252.1 153.0M-273.1 160.0L-268.7 158.5M-268.7 158.5L-263.5 156.9M-268.7 158.5L-269.4 159.5M-259.5 155.1L-263.5 156.9M-502.1 171.8L-503.9 179.5M-263.5 156.9L-263.4 158.4M-466.9 173.7L-467.8 182.6M-249.1 153.7L-246.3 155.6M-2.7 153.2L-5.9 157.2M-380.8 176.6L-380.7 176.6M-263.4 158.4L-266.0 159.0M-263.4 158.4L-261.9 160.4M241.6 180.2L229.3 183.6M241.6 180.2L246.7 178.9M-273.1 160.0L-274.6 160.6M-273.1 160.0L-273.4 160.4M-336.6 171.7L-336.5 171.8M-305.8 166.3L-305.8 166.4M-269.4 159.5L-273.4 160.4M-269.4 159.5L-266.0 159.0M-246.3 155.6L-242.4 157.2M-297.6 167.1L-299.2 168.3M-217.4 153.8L-218.1 155.1M-5.9 157.2L-9.0 160.7M-234.3 156.4L-233.0 156.3M-234.3 156.4L-236.8 157.3M-510.9 169.4L-510.1 171.3M-448.3 180.6L-448.2 180.6M-274.6 160.6L-273.4 160.4M-33.3 157.0L-38.7 156.9M-28.0 161.5L-33.3 157.0M-28.0 161.5L-23.2 169.4M-9.0 160.7L-11.4 163.0M-38.7 156.9L-43.3 157.2M-38.7 156.9L-40.0 161.0M-297.6 167.1L-295.7 166.1M-295.7 166.1L-295.6 167.0M-261.9 160.4L-261.6 161.6M-261.9 160.4L-261.1 161.7M-233.0 156.3L-233.6 157.5M-43.3 157.2L-47.0 157.5M-43.3 157.2L-45.2 159.4M-297.6 167.1L-297.5 168.7M-47.0 157.5L-53.2 157.6M-45.2 159.4L-44.1 161.9M-295.6 167.0L-297.5 168.7M-72.8 166.7L-74.3 168.6M-58.6 159.8L-53.2 157.6M-58.6 159.8L-61.9 164.3M-47.0 157.5L-45.2 159.4M-40.0 161.0L-38.0 167.3M-40.0 161.0L-44.1 161.9M-45.2 159.4L-47.4 162.9M-221.9 156.8L-224.9 158.2M-218.1 155.1L-221.9 156.8M-11.4 163.0L-13.1 165.2M-299.2 168.3L-298.9 169.7M-261.6 161.6L-261.2 162.2M-242.4 157.2L-236.8 157.3M-236.8 157.3L-233.6 157.5M-218.1 155.1L-217.3 155.8M-261.1 161.7L-261.2 162.2M-233.6 157.5L-232.4 159.5M-232.4 159.5L-231.4 161.7M-297.5 168.7L-298.9 169.7M-297.5 168.7L-298.4 170.1M-221.9 156.8L-221.7 158.2M-44.1 161.9L-47.4 162.9M-44.1 161.9L-43.7 166.6M-13.1 165.2L-14.6 168.1M-218.1 155.1L-218.7 157.3M-217.3 155.8L-218.7 157.3M-224.9 158.2L-228.9 159.9M-224.9 158.2L-221.7 158.2M-47.4 162.9L-53.0 168.1M229.3 183.6L215.5 187.8M-298.9 169.7L-298.4 170.1M-221.7 158.2L-218.7 157.3M-14.6 168.1L-18.3 168.8M-231.4 161.7L-228.9 159.9M-231.4 161.7L-233.5 162.0M-61.9 164.3L-63.1 170.2M-503.9 179.5L-503.5 188.5M-218.7 157.3L-221.4 160.4M-38.0 167.3L-39.3 170.6M-467.8 182.6L-471.2 190.5M-221.7 158.2L-221.4 160.4M-43.7 166.6L-42.2 171.2M-14.6 168.1L-13.1 170.9M-13.1 170.9L-13.8 172.5M215.5 187.8L203.4 191.7M-231.4 161.7L-225.5 164.3M-231.4 161.7L-233.5 162.0M-221.4 160.4L-225.5 164.3M-53.0 168.1L-57.7 172.7M-233.5 162.0L-233.5 162.0M-23.2 169.4L-18.3 168.8M-38.0 167.3L-36.8 171.5M-23.2 169.4L-26.9 175.0M-23.2 169.4L-21.7 174.1M-39.3 170.6L-42.2 171.2M-13.8 172.5L-17.4 176.4M-13.8 172.5L-12.7 171.9M-13.1 170.9L-12.7 171.9M-204.0 162.3L-206.1 164.2M-216.6 163.2L-216.6 163.2M-39.3 170.6L-39.0 172.7M-21.7 174.1L-26.5 178.5M-21.7 174.1L-17.4 176.4M-216.6 163.2L-217.4 164.5M-202.1 162.7L-201.3 164.8M-199.4 167.1L-199.7 170.9M-84.3 177.8L-83.9 179.8M-42.2 171.2L-43.2 175.1M-36.8 171.5L-39.0 172.7M-36.8 171.5L-35.8 174.7M57.8 189.2L57.0 190.1M-216.6 163.2L-217.4 164.5M-74.3 168.6L-78.5 173.2M-39.0 172.7L-43.2 175.1M203.4 191.7L197.9 192.9M203.4 191.7L199.7 192.8M-204.0 162.3L-202.1 162.7M-63.1 170.2L-63.0 175.7M-26.9 175.0L-30.4 177.5M-26.9 175.0L-27.9 177.7M-202.1 162.7L-203.2 164.4M-225.5 164.3L-223.9 168.6M-35.8 174.7L-35.3 178.7M52.9 187.1L49.6 186.7M52.9 187.1L54.6 189.2M197.9 192.9L195.5 193.2M197.9 192.9L199.7 192.8M-217.4 164.5L-219.2 168.4M-206.1 164.2L-210.2 168.0M-206.1 164.2L-203.2 164.4M-304.5 178.5L-301.6 179.1M-304.5 178.5L-305.5 178.4M-57.7 172.7L-60.9 175.3M-290.4 177.3L-291.0 178.5M-201.3 164.8L-203.2 164.4M-30.4 177.5L-33.1 179.8M-30.4 177.5L-30.7 178.3M45.9 185.5L49.6 186.7M45.9 185.5L46.1 189.1M-43.2 175.1L-49.5 180.1M49.6 186.7L48.2 189.4M54.6 189.2L52.3 192.6M57.0 190.1L54.6 189.2M68.7 197.3L67.7 198.5M-35.3 178.7L-35.6 182.4M45.9 185.5L40.2 186.9M-223.9 168.6L-219.2 168.4M-223.9 168.6L-224.8 170.0M-71.5 177.4L-72.2 177.9M-35.3 178.7L-33.1 179.8M-17.4 176.4L-18.2 187.8M-201.3 164.8L-204.9 168.1M-201.3 164.8L-199.4 167.1M-63.0 175.7L-60.9 175.3M-27.9 177.7L-30.7 178.3M-26.5 178.5L-27.9 177.7M61.0 192.3L64.2 192.3M64.2 192.3L65.4 192.5M-503.5 188.5L-514.7 190.5M-503.5 188.5L-485.9 190.7M-471.2 190.5L-485.9 190.7M-471.2 190.5L-467.4 192.9M40.2 186.9L36.0 187.8M40.2 186.9L38.3 189.0M-301.6 179.1L-297.1 180.0M-291.0 178.5L-291.4 180.1M-291.0 178.5L-293.0 179.8M-203.2 164.4L-204.9 168.1M-83.9 179.8L-78.5 173.2M-63.0 175.7L-63.9 179.9M48.2 189.4L48.2 191.9M-33.1 179.8L-30.7 178.3M36.0 187.8L30.2 189.3M36.0 187.8L37.3 189.1M73.5 200.3L73.0 201.3M57.0 190.1L52.3 192.6M57.0 190.1L61.0 192.3M-503.5 188.5L-509.3 193.1M-210.2 168.0L-214.1 170.7M-210.2 168.0L-208.1 169.4M46.1 189.1L48.2 189.4M46.1 189.1L44.1 192.8M61.0 192.3L60.4 195.8M-514.7 190.5L-529.9 190.4M-514.7 190.5L-509.3 193.1M-291.4 180.1L-293.0 179.8M-204.9 168.1L-208.1 169.4M-204.9 168.1L-207.4 169.7M-204.9 168.1L-206.2 172.3M-60.0 181.1L-60.8 181.6M-26.5 178.5L-31.1 182.4M-18.2 187.8L-25.7 192.6M-219.2 168.4L-214.1 170.7M38.3 189.0L37.3 189.1M38.3 189.0L37.8 191.0M111.3 212.4L111.8 213.7M-297.1 180.0L-293.0 179.8M-293.0 179.8L-293.2 180.7M-208.1 169.4L-208.9 171.4M-208.1 169.4L-207.4 169.7M-66.4 178.1L-63.9 179.9M-66.4 178.1L-69.0 177.5M-63.9 179.9L-65.6 186.0M-63.9 179.9L-60.8 181.6M-297.1 180.0L-295.5 180.9M-72.2 177.9L-69.0 177.5M-49.5 180.1L-53.1 182.0M-49.5 180.1L-53.2 183.4M-33.1 179.8L-35.6 182.4M-33.1 179.8L-31.1 182.4M30.2 189.3L24.4 192.0M30.2 189.3L30.3 191.7M-509.3 193.1L-510.9 198.9M37.3 189.1L37.8 191.0M-53.1 182.0L-56.8 183.4M-53.1 182.0L-53.2 183.4M52.3 192.6L48.2 191.9M52.3 192.6L48.9 199.3M-187.3 176.4L-188.5 177.8M-72.2 177.9L-77.0 179.6M-207.4 169.7L-208.9 171.4M-18.2 187.8L-13.8 199.9M37.8 191.0L38.5 195.1M48.2 191.9L44.1 192.8M60.4 195.8L59.9 199.4M-293.2 180.7L-295.5 180.9M-291.4 180.1L-293.2 180.7M-291.4 180.1L-290.6 180.7M-77.0 179.6L-81.0 181.3M-214.1 170.7L-210.6 173.9M-83.9 179.8L-90.7 184.5M-83.9 179.8L-81.0 181.3M-83.9 179.8L-84.1 186.8M-60.8 181.6L-59.9 184.5M-31.1 182.4L-33.8 186.6M-529.9 190.4L-540.6 190.8M-234.2 174.3L-235.0 175.0M-102.2 180.4L-104.1 181.4M-102.2 180.4L-101.4 181.7M44.1 192.8L41.2 193.3M41.2 193.3L38.5 195.1M44.1 192.8L41.3 196.8M-234.2 174.3L-234.0 174.4M-208.9 171.4L-210.6 173.9M-81.0 181.3L-79.8 185.0M-56.8 183.4L-59.9 184.5M-53.2 183.4L-57.9 188.6M-234.0 174.4L-234.8 175.1M-199.7 170.9L-203.0 172.3M-199.7 170.9L-197.2 173.2M-35.6 182.4L-36.3 188.5M24.4 192.0L20.0 196.0M30.3 191.7L30.8 194.3M30.3 191.7L28.4 193.8M38.5 195.1L35.2 194.3M67.7 198.5L63.9 199.2M67.7 198.5L69.3 200.7M-540.6 190.8L-544.4 191.0M-235.0 175.0L-235.3 175.4M-235.0 175.0L-234.8 175.1M35.2 194.3L32.4 195.1M82.3 201.1L81.0 201.5M-276.3 182.5L-276.9 183.3M-206.2 172.3L-210.6 173.9M-206.2 172.3L-203.0 172.3M82.3 201.1L83.1 202.6M-101.4 181.7L-103.8 183.3M-101.4 181.7L-101.0 183.6M-65.6 186.0L-70.6 191.9M-65.6 186.0L-61.5 187.0M-33.8 186.6L-36.3 188.5M30.8 194.3L32.4 195.1M-234.8 175.1L-235.3 175.4M-104.1 181.4L-106.4 182.8M-104.1 181.4L-103.8 183.3M89.6 207.6L89.5 209.2M-106.4 182.8L-107.5 184.7M30.8 194.3L28.4 193.8M28.4 193.8L23.6 195.4M32.4 195.1L31.3 198.0M38.5 195.1L41.3 196.8M38.5 195.1L38.1 201.4M41.3 196.8L41.8 201.4M73.0 201.3L74.4 201.5M74.4 201.5L75.1 202.2M78.3 201.5L75.1 202.2M78.3 201.5L81.0 201.5M-210.6 173.9L-211.7 177.4M-90.7 184.5L-96.6 189.7M81.0 201.5L79.4 204.3M-79.8 185.0L-77.2 187.9M-59.9 184.5L-61.5 187.0M30.8 194.3L31.3 198.0M59.9 199.4L63.9 199.2M73.0 201.3L69.3 200.7M73.0 201.3L75.1 202.2M73.0 201.3L71.7 203.7M81.0 201.5L83.1 202.6M-197.2 173.2L-193.4 175.3M-103.8 183.3L-107.5 184.7M-103.8 183.3L-102.6 186.4M-101.0 183.6L-102.6 186.4M-47.5 192.6L-48.0 193.5M83.1 202.6L79.4 204.3M85.6 203.4L83.1 202.6M85.6 203.4L86.3 204.7M-57.9 188.6L-61.5 187.0M-36.3 188.5L-37.8 194.9M48.9 199.3L48.9 201.8M69.3 200.7L68.1 202.8M48.9 199.3L46.2 201.9M59.9 199.4L55.9 201.4M-276.9 183.3L-277.9 185.3M-188.5 177.8L-193.4 175.3M-84.1 186.8L-83.1 191.3M-84.1 186.8L-85.5 190.7M55.9 201.4L52.3 202.1M75.1 202.2L74.2 205.1M-102.6 186.4L-103.0 189.4M92.8 208.3L93.9 206.7M-57.9 188.6L-59.0 193.8M20.0 196.0L23.6 195.4M79.4 204.3L74.2 205.1M79.4 204.3L78.2 209.9M83.1 202.6L85.1 206.0M-121.4 185.0L-122.3 186.7M-121.4 185.0L-120.6 187.2M-77.2 187.9L-74.0 190.0M-25.7 192.6L-33.3 200.5M68.1 202.8L68.9 203.9M-316.3 195.6L-316.2 195.7M71.7 203.7L68.9 203.9M71.7 203.7L74.2 205.1M-102.6 186.4L-103.8 189.8M-70.6 191.9L-74.0 190.0M20.0 196.0L14.9 200.1M86.3 204.7L85.1 206.0M-107.5 184.7L-109.0 186.0M-85.5 190.7L-85.7 194.9M-48.8 195.5L-49.1 195.4M48.9 201.8L46.2 201.9M48.9 201.8L52.3 202.1M85.1 206.0L83.1 209.1M100.2 209.0L101.8 212.2M-188.5 177.8L-185.8 180.0M-188.5 177.8L-188.7 181.5M-122.3 186.7L-122.7 191.6M31.3 198.0L30.7 204.2M100.2 209.0L97.1 209.6M-211.7 177.4L-212.7 179.9M-70.6 191.9L-69.3 196.3M-70.6 191.9L-72.9 195.6M-37.8 194.9L-42.1 196.4M-37.8 194.9L-33.3 200.5M41.8 201.4L46.2 201.9M-280.1 187.4L-278.3 187.3M-136.3 187.0L-135.6 187.9M-103.0 189.4L-103.8 189.8M-103.8 189.8L-105.5 194.0M-103.0 189.4L-101.8 191.5M-42.1 196.4L-46.1 200.0M74.2 205.1L71.3 210.1M-83.1 191.3L-83.9 195.3M-59.0 193.8L-61.0 196.7M-59.0 193.8L-58.6 194.5M92.8 208.3L89.5 209.2M92.8 208.3L93.3 212.1M-96.6 189.7L-101.8 191.5M-96.6 189.7L-95.4 192.1M-120.6 187.2L-119.0 190.0M-120.6 187.2L-121.9 189.4M38.1 201.4L41.8 201.4M85.1 206.0L86.5 208.7M-291.8 189.1L-294.2 189.3M-277.9 185.3L-278.3 187.3M-185.8 180.0L-181.3 180.4M-135.6 187.1L-135.6 187.9M-93.1 195.0L-95.4 192.1M-93.1 195.0L-90.4 198.9M14.9 200.1L11.1 201.3M14.9 200.1L15.1 203.3M-513.1 202.5L-514.2 203.7M-510.9 198.9L-513.1 202.5M-177.6 181.5L-175.0 184.4M-177.6 181.5L-176.6 182.1M38.1 201.4L34.4 204.3M-268.9 187.2L-273.8 189.3M-268.9 187.2L-265.6 186.0M-177.6 181.5L-181.3 180.4M-212.7 179.9L-214.7 182.3M-48.0 193.5L-49.1 195.4M-294.2 189.3L-297.4 191.3M-265.6 186.0L-264.5 185.7M-185.8 180.0L-188.7 181.5M-291.8 189.1L-290.3 191.9M-101.8 191.5L-103.9 193.3M-49.1 195.4L-49.9 196.4M122.9 211.1L121.7 211.2M122.9 211.1L121.9 211.5M-214.7 182.3L-218.8 183.6M-175.0 184.4L-176.6 182.1M11.1 201.3L9.7 200.6M11.1 201.3L11.8 204.6M-306.1 193.1L-304.4 193.8M-306.1 193.1L-306.8 192.6M-306.1 193.1L-305.6 193.6M-122.7 191.6L-121.9 189.4M-119.0 190.0L-118.2 193.4M-69.3 196.3L-66.0 200.2M-69.3 196.3L-71.2 196.3M-61.0 196.7L-63.0 199.7M30.7 204.2L34.4 204.3M30.7 204.2L26.9 207.0M89.5 209.2L89.6 212.6M-218.8 183.6L-217.4 185.4M-72.9 195.6L-76.4 198.5M-72.9 195.6L-71.2 196.3M45.2 212.8L46.6 213.4M78.2 209.9L71.3 210.1M78.2 209.9L83.1 209.1M83.1 209.1L85.3 211.6M86.5 208.7L85.3 211.6M89.5 209.2L86.5 208.7M101.8 212.2L100.7 217.1M101.8 212.2L102.8 215.3M121.7 211.2L118.9 211.9M-218.8 183.6L-222.7 184.6M-218.8 183.6L-220.9 183.4M-188.7 181.5L-190.1 183.5M-105.5 194.0L-107.6 193.8M-107.6 193.8L-110.5 195.0M15.1 203.3L16.5 203.5M71.3 210.1L65.6 211.6M89.5 209.2L88.1 212.7M-297.4 191.3L-300.9 193.3M-105.5 194.0L-103.9 193.3M-85.7 194.9L-83.9 195.3M-85.7 194.9L-86.9 197.5M-83.9 195.3L-84.8 197.3M71.3 210.1L68.5 213.2M78.2 209.9L78.2 216.7M111.8 213.7L118.9 211.9M-273.8 189.3L-272.7 191.8M-175.0 184.4L-170.9 191.6M-135.6 187.9L-133.6 191.7M-290.3 191.9L-293.0 195.1M-278.3 187.3L-273.8 189.3M-118.2 193.4L-121.6 194.2M-118.2 193.4L-114.7 195.7M15.1 203.3L11.8 204.6M11.8 204.6L10.5 208.7M-273.8 189.3L-276.1 192.1M-86.9 197.5L-84.8 197.3M97.1 209.6L93.3 212.1M-222.7 184.6L-228.3 189.6M-222.7 184.6L-220.9 183.4M54.6 211.4L53.5 211.7M54.6 211.4L52.4 212.1M89.6 212.6L88.1 212.7M89.6 212.6L91.2 215.4M121.9 211.5L118.9 211.9M-122.7 191.6L-121.6 194.2M-122.7 191.6L-123.5 196.0M-105.5 194.0L-107.3 199.7M65.6 211.6L63.6 211.5M65.6 211.6L66.0 213.6M88.1 212.7L88.1 216.4M-290.3 191.9L-286.3 192.6M-290.3 191.9L-290.8 194.2M-286.3 192.6L-281.7 192.9M-286.3 192.6L-287.6 194.7M-90.4 198.9L-86.9 197.5M-76.4 198.5L-78.9 200.0M-76.4 198.5L-77.3 201.0M-66.0 200.2L-63.0 199.7M-63.0 199.7L-62.7 202.3M85.3 211.6L84.2 215.6M111.8 213.7L105.6 215.7M-217.4 185.4L-215.2 184.2M-217.4 185.4L-218.0 186.6M-214.7 182.3L-215.2 184.2M-78.9 200.0L-80.6 202.9M-13.8 199.9L-10.9 201.8M15.1 203.3L15.5 203.9M23.2 208.4L24.2 208.1M111.8 213.7L112.3 216.6M-121.6 194.2L-123.5 196.0M-110.5 195.0L-114.7 195.7M-13.8 199.9L-17.6 207.5M-304.4 193.8L-305.6 193.6M-304.4 193.8L-300.9 193.3M-133.6 191.7L-131.0 195.4M-110.5 195.0L-111.6 197.9M26.9 207.0L24.2 208.1M53.5 211.7L50.7 212.4M53.5 211.7L52.8 212.2M85.3 211.6L88.1 212.7M93.3 212.1L91.2 215.4M93.3 212.1L92.1 214.6M-90.4 198.9L-90.6 200.9M-90.4 198.9L-91.1 203.2M-46.1 200.0L-50.4 204.6M-114.7 195.7L-116.6 199.9M-293.0 195.1L-290.8 194.2M-228.3 189.6L-236.8 196.8M-228.3 189.6L-225.7 190.8M-141.4 195.9L-141.2 198.4M-281.7 192.9L-279.0 193.3M-281.7 192.9L-280.6 193.7M-111.6 197.9L-114.7 201.5M-66.0 200.2L-66.2 204.1M52.4 212.1L52.8 212.2M46.6 213.4L52.4 212.1M66.0 213.6L65.8 215.9M68.5 213.2L66.0 213.6M68.5 213.2L67.9 215.8M91.2 215.4L92.1 214.6M102.8 215.3L105.6 215.7M105.6 215.7L102.8 217.8M-293.0 195.1L-297.6 199.9M-33.3 200.5L-36.7 205.8M-33.3 200.5L-31.9 208.7M100.7 217.1L102.8 215.3M102.8 215.3L102.8 217.8M113.0 217.6L113.2 218.4M-571.4 208.8L-572.6 209.3M-107.3 199.7L-111.1 205.1M-107.3 199.7L-106.5 199.7M-77.3 201.0L-78.7 203.5M-62.7 202.3L-63.5 205.1M10.5 208.7L10.1 210.4M50.7 212.4L52.8 212.2M91.2 215.4L90.1 219.9M112.3 216.6L113.0 217.6M112.3 216.6L112.8 218.2M-131.0 195.4L-128.3 198.3M-276.1 192.1L-279.0 193.3M-279.0 193.3L-279.7 194.6M-276.1 192.1L-276.1 193.1M-123.5 196.0L-125.9 200.5M-66.2 204.1L-69.1 206.9M-66.2 204.1L-63.5 205.1M33.2 213.3L33.2 212.2M-50.4 204.6L-54.7 209.0M46.6 213.4L50.7 212.4M-280.6 193.7L-279.7 194.6M-116.6 199.9L-121.6 203.0M-116.6 199.9L-114.7 201.5M-55.5 209.1L-54.7 209.0M65.8 215.9L67.9 215.8M65.8 215.9L65.8 218.0M-272.7 191.8L-270.7 192.8M-272.7 191.8L-271.1 193.0M-176.9 191.1L-177.5 192.0M-90.6 200.9L-91.1 203.2M-80.6 202.9L-78.7 203.5M-78.7 203.5L-78.8 206.3M-12.7 211.3L-14.4 214.0M67.9 215.8L68.2 218.5M84.2 215.6L84.0 219.4M-272.7 191.8L-276.1 193.1M-270.7 192.8L-269.4 194.4M-170.9 191.6L-165.4 193.9M-91.1 203.2L-92.4 206.3M-80.6 202.9L-83.0 206.8M-36.7 205.8L-40.5 211.0M65.8 215.9L64.8 216.8M78.2 216.7L77.8 223.3M88.1 216.4L88.7 218.8M-290.8 194.2L-291.3 194.8M-290.8 194.2L-287.6 194.7M-279.7 194.6L-276.1 193.1M-128.3 198.3L-125.9 200.5M33.2 213.3L34.0 215.9M90.1 219.9L90.8 224.3M90.1 219.9L88.7 218.8M100.7 217.1L102.8 217.8M113.2 218.4L112.8 218.2M-287.6 194.7L-285.5 196.5M-279.7 194.6L-282.8 196.5M-170.9 191.6L-173.4 195.5M-114.7 201.5L-117.6 206.3M-91.1 203.2L-91.3 206.6M-63.5 205.1L-63.3 209.4M-271.1 193.0L-269.4 194.4M-125.9 200.5L-121.6 203.0M-93.5 206.0L-92.4 206.3M84.0 219.4L83.9 223.3M100.7 217.1L97.0 220.1M100.7 217.1L99.2 222.0M-242.9 191.3L-241.6 190.9M46.6 213.4L41.6 216.7M64.8 216.8L64.6 217.2M65.8 218.0L64.8 216.8M65.8 218.0L68.2 218.5M102.8 217.8L101.9 221.5M-225.7 190.8L-223.7 194.7M-83.0 206.8L-85.9 209.8M-78.8 206.3L-80.3 208.5M-40.5 211.0L-45.2 216.7M-269.4 194.4L-267.2 197.7M-242.9 191.3L-245.9 192.4M-125.9 200.5L-130.3 203.5M-245.9 192.4L-248.5 192.7M-245.9 192.4L-246.2 194.6M-197.5 194.5L-198.9 194.8M-177.5 192.0L-178.6 194.4M-157.0 196.1L-160.9 195.1M-157.0 196.1L-153.7 198.2M-141.2 198.4L-138.7 203.2M-141.2 198.4L-143.9 201.0M-92.4 206.3L-91.3 206.6M-69.1 206.9L-71.6 209.9M97.0 220.1L93.7 221.9M97.0 220.1L97.7 222.3M-285.5 196.5L-282.8 196.5M34.0 215.9L36.1 218.9M-203.1 191.7L-201.9 190.9M-201.9 190.9L-200.9 191.8M-203.1 191.7L-206.4 194.7M-121.6 203.0L-124.6 206.0M-121.6 203.0L-119.7 205.3M99.2 222.0L97.7 222.3M-248.5 192.7L-250.8 194.1M-83.0 206.8L-80.3 208.5M-31.9 208.7L-30.1 213.0M-31.9 208.7L-32.1 211.3M-17.6 207.5L-22.0 213.1M65.8 218.0L66.3 222.6M68.2 218.5L68.6 222.4M93.7 221.9L90.8 224.3M-178.6 194.4L-178.4 196.8M-165.4 193.9L-160.9 195.1M-153.7 198.2L-148.1 200.5M-153.7 198.2L-155.8 200.5M-91.3 206.6L-91.5 209.9M-63.3 209.4L-61.5 212.1M-63.3 209.4L-66.3 212.5M41.6 216.7L38.5 219.3M65.8 218.0L64.6 217.2M-92.4 206.3L-92.2 209.7M-302.9 204.6L-301.6 204.4M-253.8 196.8L-250.8 194.1M-100.3 209.0L-101.5 209.1M-100.3 209.0L-100.1 211.1M-32.1 211.3L-32.7 213.4M99.2 222.0L100.1 223.3M99.2 222.0L97.7 224.4M-253.8 196.8L-258.1 200.6M-203.1 191.7L-200.9 191.8M-198.9 194.8L-200.9 191.8M-143.9 201.0L-148.1 200.5M-143.9 201.0L-142.0 203.4M-117.6 206.3L-119.7 205.3M-111.1 205.1L-114.7 210.3M-80.3 208.5L-79.7 212.0M-71.6 209.9L-69.2 211.4M-61.5 212.1L-60.8 217.1M83.9 223.3L85.0 226.1M97.7 222.3L97.7 224.4M-173.4 195.5L-176.4 197.4M-101.5 209.1L-102.2 209.5M-91.5 209.9L-92.2 209.7M-91.5 209.9L-92.2 213.1M-85.9 209.8L-86.7 213.1M-71.6 209.9L-75.4 211.8M-22.0 213.1L-27.3 213.8M-22.0 213.1L-20.5 217.4M-14.4 214.0L-14.6 217.9M-14.4 214.0L-20.5 217.4M36.1 218.9L38.5 219.3M38.5 219.3L39.2 219.5M-246.2 194.6L-245.0 195.3M-245.0 195.3L-244.4 196.4M-143.9 201.0L-146.4 205.2M-130.3 203.5L-134.0 205.6M-124.6 206.0L-128.3 207.3M-124.6 206.0L-124.5 209.0M90.8 224.3L86.3 227.5M90.8 224.3L93.1 227.7M101.9 221.5L100.1 223.3M-206.4 194.7L-209.3 198.5M-148.1 200.5L-148.0 201.7M-148.1 200.5L-148.8 203.5M-54.7 209.0L-56.3 212.7M-30.1 213.0L-27.3 213.8M-27.3 213.8L-30.2 216.9M83.9 223.3L81.4 223.8M-246.2 194.6L-247.3 196.4M-75.4 211.8L-77.9 212.6M-75.4 211.8L-75.7 214.9M100.1 223.3L97.7 224.4M-297.6 199.9L-301.6 204.4M-223.7 194.7L-222.2 196.9M-223.7 194.7L-222.9 198.0M-178.4 196.8L-176.4 197.4M-142.0 203.4L-140.7 206.5M-142.0 203.4L-143.3 204.8M-79.7 212.0L-81.3 214.8M-79.7 212.0L-77.9 212.6M-30.1 213.0L-32.7 213.4M36.1 218.9L37.1 219.8M66.3 222.6L68.6 222.4M68.6 222.4L68.4 226.2M77.8 223.3L81.4 223.8M-92.2 209.7L-92.5 213.0M-66.3 212.5L-69.2 211.4M-66.3 212.5L-66.5 215.8M-32.7 213.4L-37.4 216.7M66.3 222.6L67.3 225.4M75.7 225.0L75.1 227.2M77.8 223.3L75.7 225.0M-148.0 201.7L-148.8 203.5M-117.6 206.3L-118.6 210.3M-77.9 212.6L-78.3 215.5M-30.1 213.0L-30.2 216.9M2.6 219.2L2.5 219.3M-267.2 197.7L-266.2 200.7M-138.7 203.2L-140.7 206.5M-138.7 203.2L-134.0 205.6M-134.0 205.6L-131.7 209.2M-100.1 211.1L-101.6 215.8M-56.3 212.7L-56.3 217.0M38.5 219.3L37.1 219.8M66.3 222.6L61.9 225.7M77.8 223.3L76.4 226.9M-247.3 196.4L-248.8 197.0M-244.4 196.4L-247.3 196.4M-244.4 196.4L-240.8 196.8M-236.8 196.8L-240.8 196.8M-198.9 194.8L-201.0 199.1M-155.8 200.5L-155.8 202.9M-92.2 213.1L-92.5 213.0M-92.5 213.0L-92.1 215.6M-92.2 213.1L-92.1 215.6M85.0 226.1L86.3 227.5M85.0 226.1L84.2 228.1M97.7 224.4L93.1 227.7M-124.5 209.0L-125.5 210.8M-124.5 209.0L-124.1 211.4M-118.6 210.3L-117.7 211.8M-118.6 210.3L-120.8 212.2M-146.4 205.2L-148.8 203.5M-146.4 205.2L-143.3 204.8M-146.4 205.2L-145.9 208.1M-143.3 204.8L-142.8 206.6M-30.2 216.9L-34.9 220.7M-222.2 196.9L-222.9 198.0M-222.2 196.9L-219.3 198.5M-148.8 203.5L-153.1 203.9M-148.8 203.5L-148.4 205.9M-128.3 207.3L-131.7 209.2M-86.7 213.1L-86.2 216.1M-155.8 202.9L-153.1 203.9M-140.7 206.5L-142.8 206.6M-140.7 206.5L-140.5 214.0M-117.7 211.8L-120.0 215.3M-114.7 210.3L-117.7 211.8M-114.7 210.3L-114.3 214.3M-60.8 217.1L-56.3 217.0M-60.8 217.1L-62.1 226.0M-37.4 216.7L-43.5 220.0M-30.2 216.9L-28.2 221.6M-260.5 199.1L-260.3 198.7M-56.3 217.0L-50.5 222.6M-260.5 199.1L-260.7 200.2M-146.4 205.2L-148.4 205.9M-146.4 205.2L-148.5 207.9M-66.5 215.8L-69.6 217.4M51.3 226.3L55.1 226.3M75.1 227.2L76.4 226.9M-75.7 214.9L-78.3 215.5M-75.7 214.9L-72.8 218.0M-60.8 217.1L-63.6 216.3M-14.6 217.9L-19.2 221.7M68.4 226.2L68.3 228.8M-266.2 200.7L-262.9 201.2M-266.2 200.7L-269.5 202.7M-209.3 198.5L-209.1 199.6M-125.5 210.8L-128.0 213.0M-125.5 210.8L-124.1 211.4M-20.5 217.4L-28.2 221.6M68.4 226.2L67.3 225.4M67.3 225.4L66.2 226.9M68.4 226.2L66.2 226.9M86.3 227.5L84.2 228.1M86.3 227.5L86.0 231.1M-222.9 198.0L-221.3 201.1M-209.3 198.5L-212.8 199.7M-81.3 214.8L-86.2 216.1M-86.2 216.1L-90.0 219.4M-81.3 214.8L-78.3 215.5M-66.5 215.8L-63.6 216.3M-20.5 217.4L-19.2 221.7M61.9 225.7L55.1 226.3M61.9 225.7L60.4 229.4M61.9 225.7L66.2 226.9M-260.7 200.2L-262.9 201.2M-258.1 200.6L-260.7 200.2M-131.7 209.2L-131.5 213.8M-124.1 211.4L-120.8 212.2M-120.8 212.2L-120.0 215.3M-101.6 215.8L-106.8 220.5M-101.6 215.8L-99.2 217.9M-236.8 196.8L-241.0 199.5M-236.8 196.8L-236.2 201.7M-219.3 198.5L-216.6 200.8M-148.4 205.9L-148.5 207.9M-78.3 215.5L-77.9 219.8M66.2 226.9L64.2 228.8M84.2 228.1L81.0 230.7M-201.0 199.1L-201.9 200.6M-201.0 199.1L-202.4 202.7M-145.9 208.1L-142.8 206.6M-114.3 214.3L-112.3 217.3M-114.3 214.3L-114.9 216.8M46.1 226.2L44.3 226.9M46.1 226.2L48.1 226.6M-301.6 204.4L-302.0 207.7M-262.9 201.2L-260.6 202.6M-241.0 199.5L-243.9 202.0M-212.8 199.7L-216.6 200.8M-45.2 216.7L-50.5 222.6M44.3 226.9L44.3 228.2M51.3 226.3L48.1 226.6M55.1 226.3L53.1 229.6M-572.6 209.3L-573.8 209.9M-258.1 200.6L-258.1 203.7M-128.0 213.0L-126.1 214.4M51.3 226.3L51.4 228.7M76.4 226.9L76.5 230.3M93.1 227.7L90.0 231.9M-258.1 200.6L-260.6 202.6M-128.0 213.0L-131.5 213.8M-112.3 217.3L-114.9 216.8M-69.6 217.4L-72.8 218.0M-72.8 218.0L-73.3 221.0M-28.2 221.6L-35.1 225.0M-28.2 221.6L-26.4 227.6M68.3 228.8L66.2 226.9M68.3 228.8L68.0 231.5M75.1 227.2L75.3 230.4M-269.5 202.7L-272.7 204.0M-145.9 208.1L-149.0 210.7M-124.1 211.4L-126.1 214.4M-99.2 217.9L-97.8 220.8M-92.1 215.6L-90.0 219.4M48.1 226.6L47.0 228.8M76.5 230.3L75.3 230.4M76.5 230.3L77.7 232.1M-216.6 200.8L-218.3 202.2M-216.6 200.8L-216.0 203.9M64.2 228.8L62.6 230.6M-236.2 201.7L-234.9 202.7M-148.5 207.9L-149.0 210.7M86.0 231.1L87.3 233.0M-260.6 202.6L-259.1 205.5M-106.8 220.5L-112.3 217.3M-112.3 217.3L-113.2 218.9M60.4 229.4L62.6 230.6M60.4 229.4L57.7 230.4M60.4 229.4L60.1 230.6M81.0 230.7L77.7 232.1M-126.1 214.4L-125.1 218.8M-114.9 216.8L-116.7 218.8M-114.9 216.8L-115.0 218.1M-77.9 219.8L-77.8 224.0M75.3 230.4L76.0 232.3M90.0 231.9L87.3 233.0M-288.1 209.4L-285.3 210.5M-272.7 204.0L-274.1 204.5M-243.9 202.0L-245.3 204.5M-243.9 202.0L-243.3 202.9M-236.2 201.7L-239.7 204.3M-236.2 201.7L-235.0 203.5M-201.9 200.6L-202.4 202.7M-120.0 215.3L-122.8 219.1M-120.0 215.3L-119.1 217.9M-34.9 220.7L-36.9 223.6M-90.0 219.4L-90.4 219.9M-90.0 219.4L-90.4 224.7M-43.5 220.0L-50.5 222.6M51.4 228.7L50.6 230.2M53.1 229.6L51.4 228.7M53.1 229.6L57.7 230.4M53.1 229.6L51.8 230.8M53.1 229.6L50.6 230.2M-258.1 203.7L-258.3 204.8M-234.9 202.7L-235.0 203.5M-202.4 202.7L-203.5 209.5M-131.5 213.8L-133.5 218.1M-116.7 218.8L-119.1 217.9M-73.3 221.0L-73.9 223.5M-14.4 227.0L-17.6 228.5M44.3 228.2L47.0 228.8M47.0 228.8L50.6 230.2M-258.1 203.7L-259.1 205.5M-119.1 217.9L-119.8 219.0M-113.2 218.9L-115.0 218.1M-113.2 218.9L-113.3 221.0M-50.5 222.6L-59.3 230.8M-50.5 222.6L-48.2 227.2M-302.0 207.7L-302.5 210.6M-245.3 204.5L-243.3 202.9M-239.7 204.3L-236.3 205.9M-116.7 218.8L-115.0 218.1M-19.2 221.7L-26.4 227.6M77.7 232.1L76.0 232.3M-149.0 210.7L-152.1 214.4M-97.8 220.8L-97.4 224.0M-243.3 202.9L-239.7 204.3M-221.3 201.1L-218.3 202.2M-218.3 202.2L-216.0 203.9M-216.0 203.9L-213.9 205.6M-125.1 218.8L-122.8 219.1M-90.4 224.7L-94.0 229.4M-90.4 224.7L-86.9 226.6M62.6 230.6L60.1 230.6M62.6 230.6L65.8 232.0M-140.5 214.0L-143.5 219.3M-140.5 214.0L-137.7 217.5M-116.7 218.8L-119.8 219.0M-116.7 218.8L-113.3 221.0M57.7 230.4L60.1 230.6M68.0 231.5L65.8 232.0M-113.3 221.0L-110.9 223.5M-106.8 220.5L-104.5 224.7M-106.8 220.5L-108.9 223.3M-73.9 223.5L-72.3 224.5M-73.9 223.5L-76.2 225.8M-259.1 205.5L-258.3 204.8M-235.0 203.5L-236.3 205.9M-216.0 203.9L-215.4 209.5M-137.7 217.5L-135.4 221.0M-122.8 219.1L-119.8 219.0M-122.8 219.1L-125.2 221.6M-77.8 224.0L-76.2 225.8M-77.8 224.0L-80.3 226.7M-35.1 225.0L-36.9 223.6M50.6 230.2L51.8 230.8M-213.9 205.6L-215.4 209.5M-213.9 205.6L-212.6 205.3M-97.4 224.0L-97.9 226.7M-133.5 218.1L-135.4 221.0M-72.3 224.5L-70.7 226.3M-302.5 210.6L-303.6 214.0M-259.1 205.5L-258.3 209.4M-245.3 204.5L-248.2 207.9M-245.3 204.5L-243.5 206.3M-152.1 214.4L-154.7 218.7M-76.2 225.8L-76.8 230.2M-239.7 204.3L-243.5 206.3M-239.7 204.3L-240.8 207.3M-125.1 218.8L-125.2 221.6M-35.1 225.0L-37.0 229.6M-215.4 209.5L-215.6 220.5M-104.5 224.7L-104.8 227.1M-104.5 224.7L-102.3 226.2M-70.7 226.3L-69.0 228.7M-110.9 223.5L-108.9 223.3M-45.4 230.4L-47.1 232.1M-104.8 227.1L-102.3 226.2M-97.9 226.7L-102.3 226.2M-17.6 228.5L-25.5 232.1M-236.3 205.9L-236.4 209.5M-143.5 219.3L-145.9 220.6M-80.3 226.7L-83.9 229.0M-37.0 229.6L-41.0 232.2M-37.0 229.6L-35.0 232.8M-125.2 221.6L-126.6 225.1M-26.4 227.6L-35.0 232.8M-26.4 227.6L-25.5 232.1M-285.3 210.5L-278.9 212.9M-86.9 226.6L-83.9 229.0M-69.0 228.7L-69.5 229.3M-69.0 228.7L-65.9 229.8M-62.1 226.0L-65.9 229.8M-62.1 226.0L-59.3 230.8M-303.6 214.0L-309.1 218.5M-303.6 214.0L-299.5 214.0M-154.7 218.7L-158.9 222.8M-154.7 218.7L-152.3 221.3M-48.2 227.2L-47.1 232.1M-94.0 229.4L-97.9 226.7M-65.9 229.8L-67.1 234.5M-243.5 206.3L-245.3 208.1M-243.5 206.3L-242.5 208.7M-240.8 207.3L-242.5 208.7M-240.8 207.3L-240.4 209.4M-143.5 219.3L-144.1 224.4M-135.4 221.0L-134.4 222.0M-135.4 221.0L-137.9 223.9M-203.5 209.5L-201.6 214.5M-203.5 209.5L-206.0 212.5M-145.9 220.6L-148.3 222.3M-248.2 207.9L-245.3 208.1M-76.8 230.2L-77.6 230.9M-76.8 230.2L-76.4 231.3M-76.8 230.2L-76.4 231.3M-245.3 208.1L-242.5 208.7M-137.9 223.9L-140.5 226.0M-104.8 227.1L-107.6 230.9M-83.9 229.0L-85.9 233.1M-297.0 213.9L-299.5 214.0M-297.0 213.9L-294.8 215.3M-248.2 207.9L-252.0 210.4M-126.6 225.1L-127.4 227.6M-94.0 229.4L-91.1 233.1M-94.0 229.4L-96.2 233.8M-47.1 232.1L-53.1 238.3M-47.1 232.1L-45.6 236.0M-252.0 210.4L-255.4 212.7M-242.5 208.7L-240.4 209.4M-242.5 208.7L-241.6 209.8M-258.3 209.4L-256.9 211.6M-236.4 209.5L-240.4 209.4M-236.4 209.5L-233.5 211.6M-206.0 212.5L-208.4 216.6M-152.3 221.3L-148.3 222.3M-127.4 227.6L-128.4 230.1M-59.3 230.8L-65.1 236.0M-59.3 230.8L-58.2 235.3M-240.4 209.4L-241.6 209.8M-148.3 222.3L-150.5 222.2M-144.1 224.4L-148.3 222.3M-41.0 232.2L-45.6 236.0M-25.5 232.1L-35.3 240.5M-255.4 212.7L-256.9 211.6M-76.4 231.3L-76.4 231.3M-299.5 214.0L-297.1 216.3M-294.8 215.3L-297.1 216.3M-107.6 230.9L-112.5 233.1M-107.6 230.9L-105.4 233.5M-85.9 233.1L-91.1 233.1M-91.1 233.1L-93.8 236.9M-35.0 232.8L-42.6 239.8M-269.5 214.3L-269.5 213.4M-269.5 214.3L-267.2 216.2M-255.4 212.7L-258.4 215.6M-297.1 216.3L-299.3 219.6M-297.1 216.3L-295.0 217.5M-278.9 212.9L-272.1 214.7M-85.9 233.1L-83.4 237.1M-309.1 218.5L-312.2 220.0M-233.5 211.6L-230.8 213.1M-229.6 214.1L-230.8 213.1M-269.5 214.3L-272.1 214.7M-152.3 221.3L-155.0 222.0M-155.0 222.0L-157.4 222.4M-152.3 221.3L-150.5 222.2M-144.1 224.4L-140.5 226.0M-144.1 224.4L-144.1 229.7M-140.5 226.0L-138.8 229.5M-67.1 234.5L-71.1 237.4M-67.1 234.5L-65.1 236.0M-128.4 230.1L-132.2 231.9M-112.5 233.1L-117.4 234.7M-117.4 234.7L-122.1 232.5M-117.4 234.7L-118.3 240.7M-112.5 233.1L-112.6 235.7M-105.4 233.5L-103.6 234.8M-105.4 233.5L-104.8 235.9M-45.6 236.0L-51.3 242.0M-45.6 236.0L-43.9 238.5M-230.8 213.1L-229.8 214.9M-201.6 214.5L-203.2 216.6M-201.6 214.5L-199.1 217.5M-158.9 222.8L-162.5 229.0M-158.9 222.8L-157.4 222.4M-122.1 232.5L-126.5 232.6M-122.1 232.5L-122.8 234.2M-96.2 233.8L-100.7 235.9M-96.2 233.8L-93.8 236.9M-58.2 235.3L-56.4 238.4M-294.8 215.3L-293.4 215.0M-208.4 216.6L-203.2 216.6M-103.6 234.8L-104.8 235.9M-103.6 234.8L-100.7 235.9M-294.8 215.3L-295.0 217.5M-295.0 217.5L-296.9 220.3M-65.1 236.0L-68.9 241.0M-83.4 237.1L-79.1 237.6M-309.1 218.5L-310.6 221.4M-272.1 214.7L-269.4 215.8M-229.6 214.1L-229.8 214.9M-229.6 214.1L-229.0 216.4M-100.7 235.9L-101.9 239.7M-215.6 220.5L-208.4 216.6M-199.1 217.5L-195.7 219.7M-199.1 217.5L-200.7 218.6M-138.8 229.5L-135.8 231.4M-138.8 229.5L-139.8 232.0M-128.4 230.1L-126.5 232.6M-312.2 220.0L-313.8 219.9M-267.2 216.2L-269.4 215.8M-135.8 231.4L-132.2 231.9M-126.5 232.6L-128.2 237.3M-93.8 236.9L-91.7 239.5M-93.8 236.9L-96.5 241.6M-312.2 220.0L-310.6 221.4M-53.1 238.3L-56.4 238.4M-56.4 238.4L-57.1 241.0M-295.0 217.5L-293.8 217.8M-258.4 215.6L-262.2 218.5M-203.2 216.6L-200.7 218.6M-132.2 231.9L-134.8 235.7M-112.6 235.7L-112.4 239.5M-79.1 237.6L-74.5 239.4M-135.8 231.4L-137.7 233.7M-71.1 237.4L-74.5 239.4M-71.1 237.4L-71.7 239.1M-299.3 219.6L-302.3 222.3M-299.3 219.6L-296.9 220.3M-296.9 220.3L-294.9 222.1M-296.9 220.3L-298.4 221.7M-144.1 229.7L-146.2 231.5M-144.1 229.7L-142.1 232.6M-104.8 235.9L-104.7 239.8M-53.1 238.3L-57.1 241.0M-53.1 238.3L-51.3 242.0M-35.3 240.5L-44.9 248.7M-229.8 214.9L-229.0 216.4M-229.8 214.9L-229.8 217.9M-139.8 232.0L-142.1 232.6M-139.8 232.0L-137.7 233.7M-122.8 234.2L-124.3 238.0M-74.5 239.4L-71.7 239.1M-68.9 241.0L-71.7 239.1M-42.6 239.8L-43.9 238.5M-267.2 216.2L-262.2 218.5M-83.4 237.1L-84.9 241.5M-229.0 216.4L-229.8 217.9M-195.7 219.7L-192.9 221.9M-200.7 218.6L-199.9 222.7M-151.2 233.5L-150.9 234.5M-310.6 221.4L-309.5 224.8M-302.3 222.3L-307.2 225.4M-229.0 216.4L-228.3 217.7M-162.5 229.0L-161.2 229.9M-146.2 231.5L-148.5 232.9M-42.6 239.8L-49.7 245.5M-302.3 222.3L-298.4 221.7M-229.0 216.4L-228.9 218.5M-161.2 229.9L-162.2 230.2M-161.2 229.9L-159.1 233.0M-91.7 239.5L-89.6 242.4M-142.1 232.6L-141.2 235.3M-57.1 241.0L-61.1 246.1M-229.8 217.9L-228.9 218.5M-229.8 217.9L-230.3 221.4M-192.9 221.9L-190.5 223.9M-101.9 239.7L-104.7 239.8M-101.9 239.7L-99.1 242.5M-68.9 241.0L-66.6 244.8M-68.9 241.0L-71.8 242.6M-228.3 217.7L-228.9 218.5M-137.7 233.7L-141.2 235.3M-134.8 235.7L-137.7 233.7M-124.3 238.0L-127.4 238.8M-124.3 238.0L-122.9 241.3M-112.4 239.5L-110.3 241.2M-112.4 239.5L-113.6 242.6M-74.5 239.4L-78.5 242.7M-74.5 239.4L-71.8 242.6M-262.2 218.5L-260.8 223.5M-104.7 239.8L-106.5 242.1M-80.8 242.2L-83.0 242.7M-80.8 242.2L-78.5 242.7M-215.6 220.5L-217.4 221.9M-199.9 222.7L-198.2 228.0M-134.8 235.7L-136.8 241.3M-228.9 218.5L-229.7 220.7M-110.3 241.2L-108.5 243.3M-84.9 241.5L-83.0 242.7M-294.9 222.1L-298.4 221.7M-294.9 222.1L-292.9 222.7M-294.9 222.1L-291.0 223.9M-292.9 222.7L-291.0 223.9M-162.5 229.0L-165.7 235.0M-162.5 229.0L-162.2 230.2M-150.9 234.5L-148.5 232.9M-128.2 237.3L-128.0 240.3M-128.2 237.3L-127.4 238.8M-96.5 241.6L-99.1 242.5M-84.9 241.5L-87.0 245.3M-78.5 242.7L-75.8 248.3M-309.5 224.8L-307.2 225.4M-127.4 238.8L-128.0 240.3M-96.5 241.6L-97.0 245.0M-78.5 242.7L-83.0 242.7M-51.3 242.0L-55.1 247.5M-51.3 242.0L-49.7 245.5M-162.2 230.2L-162.3 233.4M-83.0 242.7L-87.0 245.3M-71.8 242.6L-72.4 247.3M-309.5 224.8L-309.0 225.7M-190.5 223.9L-188.5 225.2M-188.5 225.2L-186.5 226.3M-89.6 242.4L-87.0 245.3M-106.5 242.1L-108.5 243.3M-113.6 242.6L-114.5 245.1M-99.1 242.5L-98.5 245.8M-230.3 221.4L-229.7 220.7M-141.2 235.3L-142.9 238.6M-159.1 233.0L-162.3 233.4M-159.1 233.0L-156.8 234.3M-108.5 243.3L-110.4 246.0M-66.6 244.8L-64.1 248.0M-159.1 233.0L-157.8 236.3M-150.9 234.5L-152.1 238.1M-186.5 226.3L-184.2 227.8M-97.0 245.0L-98.5 245.8M-97.0 245.0L-97.0 247.6M-291.0 223.9L-286.9 224.7M-291.0 223.9L-289.6 227.1M-165.7 235.0L-162.3 233.4M-142.9 238.6L-144.8 240.1M-142.9 238.6L-142.6 240.1M-128.0 240.3L-126.3 244.4M-122.9 241.3L-126.3 244.4M-118.3 240.7L-122.9 241.3M-87.0 245.3L-86.7 249.1M-49.7 245.5L-52.7 249.7M-307.2 225.4L-309.0 225.7M-307.2 225.4L-305.0 227.5M-184.2 227.8L-181.0 230.7M-162.3 233.4L-161.5 235.9M-156.8 234.3L-156.1 236.5M-118.3 240.7L-114.5 245.1M-55.1 247.5L-59.9 251.8M-55.1 247.5L-52.6 248.0M-286.9 224.7L-284.6 225.7M-286.9 224.7L-287.7 226.1M-87.0 245.3L-88.8 251.0M-61.1 246.1L-64.1 248.0M-61.1 246.1L-61.9 248.8M-49.7 245.5L-52.6 248.0M-284.6 225.7L-284.8 227.8M-230.3 221.4L-229.7 224.0M-157.8 236.3L-156.1 236.5M-156.1 236.5L-155.2 237.9M-126.3 244.4L-129.2 246.0M-126.3 244.4L-124.6 251.1M-75.8 248.3L-72.4 247.3M-75.8 248.3L-76.2 250.6M-75.8 248.3L-75.9 251.9M-114.5 245.1L-110.4 246.0M-114.5 245.1L-115.8 248.4M-64.1 248.0L-61.9 248.8M-44.9 248.7L-53.4 255.6M-302.1 229.2L-298.5 229.0M-260.8 223.5L-259.2 227.9M-181.0 230.7L-177.0 234.9M-144.8 240.1L-142.6 240.1M-142.6 240.1L-140.7 242.3M-138.6 241.8L-140.7 242.3M-136.8 241.3L-138.6 241.8M-110.4 246.0L-109.3 248.4M-98.5 245.8L-101.6 248.7M-98.5 245.8L-97.0 247.6M-72.4 247.3L-70.6 250.3M-86.7 249.1L-86.7 252.2M-64.1 248.0L-66.7 251.5M-147.1 239.9L-149.1 240.4M-144.8 240.1L-147.1 239.9M-104.4 247.7L-106.6 248.6M-104.4 247.7L-101.6 248.7M-59.9 251.8L-61.9 248.8M-289.6 227.1L-287.7 226.1M-198.2 228.0L-195.6 234.1M-165.7 235.0L-172.2 239.2M-165.7 235.0L-164.0 236.3M-144.8 240.1L-146.3 242.8M-52.7 249.7L-52.6 248.0M-287.7 226.1L-287.3 227.0M-109.3 248.4L-106.6 248.6M-109.3 248.4L-109.8 249.2M-101.6 248.7L-98.6 252.4M-161.5 235.9L-164.0 236.3M-157.8 236.3L-161.5 235.9M-140.7 242.3L-141.0 245.5M-305.0 227.5L-302.1 229.2M-302.1 229.2L-302.2 230.8M-229.7 224.0L-228.6 226.0M-228.6 226.0L-228.2 228.5M-215.6 220.5L-216.9 229.7M-177.0 234.9L-172.2 239.2M-157.8 236.3L-155.2 237.9M-136.8 241.3L-138.4 245.6M-129.2 246.0L-133.3 246.2M-129.2 246.0L-129.0 246.7M-106.6 248.6L-104.5 250.5M-97.0 247.6L-96.7 251.5M-152.1 238.1L-149.1 240.4M-52.7 249.7L-56.4 254.2M-298.5 229.0L-298.8 229.6M-298.5 229.0L-297.5 229.0M-152.1 238.1L-155.2 237.9M-133.3 246.2L-138.4 245.6M-115.8 248.4L-116.4 249.6M-216.9 229.7L-217.1 233.3M-284.8 227.8L-287.3 227.0M-289.6 227.1L-287.3 227.0M-149.1 240.4L-146.3 242.8M-70.6 250.3L-69.7 252.9M-101.6 248.7L-104.5 250.5M-59.9 251.8L-56.4 254.2M-59.9 251.8L-64.3 255.7M-88.8 251.0L-86.7 252.2M-86.7 252.2L-85.9 253.8M-289.6 227.1L-291.2 231.3M-88.8 251.0L-92.0 254.2M-302.2 230.8L-298.8 229.6M-298.8 229.6L-297.5 229.0M-66.7 251.5L-69.7 252.9M-66.7 251.5L-65.9 253.6M-259.2 227.9L-257.1 230.0M-259.2 227.9L-260.0 229.5M-146.3 242.8L-143.1 247.1M-141.0 245.5L-143.1 247.1M-141.0 245.5L-138.4 245.6M-98.6 252.4L-96.7 251.5M-96.7 251.5L-95.6 253.1M-76.2 250.6L-75.9 251.9M-75.9 251.9L-74.5 254.8M-69.7 252.9L-72.5 256.3M-284.8 227.8L-288.1 229.9M-284.8 227.8L-281.4 229.0M-268.0 230.2L-264.9 230.7M-98.6 252.4L-101.7 255.3M-98.6 252.4L-95.6 253.1M-277.8 229.9L-281.4 229.0M-281.4 229.0L-282.0 230.9M-277.8 229.9L-272.6 230.9M-277.8 229.9L-280.3 231.8M-124.6 251.1L-123.2 258.6M-320.7 235.9L-320.7 236.0M-228.2 228.5L-228.6 230.3M-228.2 228.5L-228.6 230.3M-138.4 245.6L-143.1 247.1M-104.5 250.5L-103.6 253.7M-92.0 254.2L-95.6 253.1M-92.0 254.2L-91.0 258.1M-64.3 255.7L-65.9 253.6M-302.2 230.8L-303.7 231.8M-53.4 255.6L-56.4 254.2M-56.4 254.2L-58.4 257.0M-291.2 231.3L-288.1 229.9M-291.2 231.3L-292.4 232.9M-268.0 230.2L-272.6 230.9M-268.0 230.2L-269.2 231.1M-228.6 230.3L-228.6 230.3M-195.6 234.1L-192.7 240.1M-291.2 231.3L-291.6 233.8M-260.0 229.5L-264.9 230.7M-185.1 239.3L-182.4 240.3M-282.0 230.9L-282.1 231.7M-282.0 230.9L-280.3 231.8M-185.1 239.3L-188.0 239.5M-64.3 255.7L-66.1 259.1M-64.3 255.7L-63.8 258.6M-257.1 230.0L-260.0 229.5M-185.1 239.3L-184.9 240.0M-74.5 254.8L-72.5 256.3M-292.4 232.9L-291.6 233.8M-257.1 230.0L-252.8 232.2M-172.2 239.2L-173.3 245.7M-101.7 255.3L-103.6 253.7M-228.6 230.3L-229.8 232.8M-182.4 240.3L-180.2 242.1M-101.7 255.3L-103.0 258.3M-53.4 255.6L-57.2 260.4M-269.2 231.1L-268.9 233.6M-228.6 230.3L-229.8 232.8M-72.5 256.3L-73.2 260.2M-280.3 231.8L-282.1 231.7M-280.3 231.8L-277.0 234.2M-91.0 258.1L-95.5 259.9M-91.0 258.1L-85.6 260.6M-66.1 259.1L-63.8 258.6M-58.4 257.0L-60.6 259.4M-272.6 230.9L-269.2 231.1M-272.6 230.9L-277.0 234.2M-264.9 230.7L-268.9 233.6M-143.1 247.1L-144.3 252.6M-291.6 233.8L-288.8 236.0M-229.8 232.8L-233.0 237.3M-192.7 240.1L-188.0 239.5M-188.0 239.5L-184.9 240.0M-184.9 240.0L-180.2 242.1M-252.8 232.2L-248.4 234.5M-63.8 258.6L-64.4 260.7M-63.8 258.6L-60.6 259.4M-95.5 259.9L-98.9 258.9M-103.0 258.3L-98.9 258.9M-66.1 259.1L-70.8 261.8M-60.6 259.4L-60.2 263.0M-110.7 259.5L-108.6 260.1M-73.2 260.2L-76.9 263.1M-73.2 260.2L-70.8 261.8M-66.1 259.1L-65.1 260.9M-277.0 234.2L-278.2 235.7M-277.0 234.2L-273.6 234.9M-173.3 245.7L-180.2 242.1M-288.8 236.0L-287.7 236.7M-288.8 236.0L-287.7 236.7M-64.4 260.7L-65.1 260.9M-192.7 240.1L-195.1 243.2M-192.7 240.1L-191.3 242.6M-103.0 258.3L-108.6 260.1M-64.4 260.7L-64.6 261.4M-144.3 252.6L-144.7 257.9M-110.7 259.5L-111.3 259.1M-173.3 245.7L-167.2 248.4M-173.3 245.7L-173.8 250.7M-108.6 260.1L-109.8 261.1M-268.9 233.6L-273.6 234.9M-268.9 233.6L-268.4 237.2M-85.6 260.6L-80.9 263.4M-57.2 260.4L-60.2 263.0M-60.2 263.0L-63.0 268.5M-248.4 234.5L-243.8 237.4M-95.5 259.9L-97.0 263.3M-70.8 261.8L-73.3 267.7M-65.1 260.9L-64.6 261.4M-76.9 263.1L-78.1 262.8M-233.0 237.3L-236.3 238.0M-191.3 242.6L-189.0 244.4M-167.2 248.4L-162.3 250.3M-78.1 262.8L-80.9 263.4M-243.8 237.4L-240.8 238.3M-236.3 238.0L-240.8 238.3M-236.3 238.0L-234.9 238.0M-287.7 236.7L-287.7 236.7M-233.0 237.3L-234.9 238.0M-233.0 237.3L-232.2 238.3M-189.0 244.4L-185.7 246.4M-162.3 250.3L-158.7 252.5M-76.9 263.1L-81.0 267.0M-185.7 246.4L-182.6 247.4M-185.7 246.4L-184.3 248.4M-123.2 258.6L-122.0 266.2M-195.1 243.2L-198.4 246.1M-156.1 254.6L-158.7 252.5M-158.7 252.5L-158.7 254.8M-266.1 238.0L-268.4 237.2M-268.4 237.2L-270.8 240.8M-266.1 238.0L-265.4 240.0M-182.6 247.4L-180.0 249.1M-156.1 254.6L-158.7 254.8M-152.2 255.9L-156.1 254.6M-156.1 254.6L-155.3 257.7M-152.2 255.9L-148.1 257.4M-80.9 263.4L-81.0 267.0M-243.8 237.4L-241.9 239.9M-240.8 238.3L-241.9 239.9M-180.0 249.1L-176.9 249.9M-180.0 249.1L-182.4 250.4M-152.2 255.9L-153.5 256.7M-97.0 263.3L-98.7 266.7M-148.1 257.4L-148.1 259.0M-144.7 257.9L-148.1 257.4M-144.7 257.9L-147.6 260.6M-144.7 257.9L-143.7 257.9M-173.8 250.7L-176.9 249.9M-173.8 250.7L-169.2 256.3M-144.7 257.9L-141.7 260.8M-98.7 266.7L-100.6 269.9M-241.9 239.9L-241.6 241.3M-241.9 239.9L-240.1 242.6M-198.4 246.1L-203.4 249.4M-73.3 267.7L-79.2 272.5M-73.3 267.7L-70.6 270.1M-158.7 254.8L-161.8 259.8M-63.0 268.5L-65.1 270.9M-63.0 268.5L-64.0 270.2M-184.3 248.4L-182.4 250.4M-155.3 257.7L-153.5 256.7M-265.4 240.0L-267.9 241.2M-265.4 240.0L-263.7 242.4M-141.7 260.8L-139.3 263.4M-81.0 267.0L-86.5 273.1M-148.1 259.0L-147.6 260.6M-270.8 240.8L-272.7 240.9M-129.2 264.6L-132.4 264.4M-129.2 264.6L-125.7 265.3M-263.7 242.4L-261.3 242.8M-261.3 242.8L-261.8 243.3M-261.3 242.8L-260.2 244.2M-203.4 249.4L-208.6 252.7M-155.3 257.7L-157.0 262.4M-241.6 241.3L-240.1 242.6M-182.4 250.4L-184.6 253.2M-270.8 240.8L-267.9 241.2M-270.8 240.8L-269.8 243.2M-267.9 241.2L-266.5 242.8M-240.1 242.6L-236.4 246.3M-122.0 266.2L-125.7 265.3M-122.0 266.2L-116.5 267.6M-116.5 267.6L-110.8 268.6M-65.1 270.9L-64.0 270.2M-139.3 263.4L-141.6 264.4M-135.7 264.2L-139.3 263.4M-169.2 256.3L-169.7 259.1M-169.2 256.3L-161.8 259.8M-135.7 264.2L-132.4 264.4M-79.2 272.5L-85.1 278.3M-70.6 270.1L-68.0 271.6M-147.6 260.6L-149.0 264.6M-110.8 268.6L-105.4 269.4M-100.6 269.9L-105.4 269.4M-263.7 242.4L-266.5 242.8M-263.7 242.4L-263.9 244.7M-266.5 242.8L-267.1 244.3M-161.8 259.8L-157.0 262.4M-161.8 259.8L-161.8 267.5M-263.7 242.4L-261.8 243.3M-261.8 243.3L-260.2 244.2M-260.2 244.2L-260.4 246.6M-122.0 266.2L-122.8 271.8M-65.1 270.9L-68.0 271.6M-261.8 243.3L-263.9 244.7M-141.6 264.4L-145.0 264.8M-100.6 269.9L-98.3 272.5M-263.9 244.7L-267.1 244.3M-184.6 253.2L-188.1 255.7M-157.0 262.4L-151.8 265.7M-157.0 262.4L-159.5 266.4M-149.0 264.6L-145.0 264.8M-149.0 264.6L-150.5 266.6M-236.4 246.3L-234.8 247.0M-236.4 246.3L-237.4 248.1M-98.3 272.5L-96.2 274.5M-188.1 255.7L-190.5 256.4M-188.1 255.7L-189.3 258.0M-208.6 252.7L-210.9 254.2M-149.0 264.6L-151.8 265.7M-269.8 243.2L-267.1 244.3M-263.9 244.7L-262.0 246.9M-237.4 248.1L-239.9 249.9M-190.5 256.4L-191.9 257.9M-169.7 259.1L-169.7 261.7M-169.7 261.7L-170.6 263.9M-151.8 265.7L-150.5 266.6M-151.8 265.7L-149.5 268.7M-150.5 266.6L-149.5 268.7M-96.2 274.5L-94.1 276.1M-86.5 273.1L-92.0 277.6M-94.1 276.1L-92.0 277.6M-189.3 258.0L-191.9 257.9M-189.3 258.0L-185.9 261.2M-260.4 246.6L-262.0 246.9M-239.9 249.9L-243.2 251.9M-185.9 261.2L-186.2 260.8M-149.5 268.7L-145.3 272.5M-161.8 267.5L-159.5 266.4M-170.6 263.9L-172.9 265.8M-122.8 271.8L-124.2 276.5M-92.0 277.6L-95.3 283.0M-243.2 251.9L-247.8 253.0M-191.9 257.9L-193.3 258.0M-191.9 257.9L-190.0 259.4M-159.5 266.4L-160.4 267.6M-136.6 273.1L-141.0 272.8M-136.6 273.1L-132.0 274.4M-185.9 261.2L-190.0 259.4M-124.2 276.5L-127.6 276.6M-124.2 276.5L-123.7 281.0M-161.8 267.5L-160.4 267.6M-145.3 272.5L-141.0 272.8M-145.3 272.5L-145.3 273.6M-132.0 274.4L-131.6 275.4M-132.0 274.4L-127.6 276.6M-185.9 261.2L-175.3 267.4M-161.8 267.5L-166.8 273.7M-172.9 265.8L-175.3 267.4M-131.6 275.4L-130.8 277.2M-250.1 252.7L-253.2 253.0M-247.8 253.0L-250.1 252.7M-243.2 251.9L-242.9 252.2M-127.6 276.6L-130.8 277.2M-127.6 276.6L-125.1 279.5M-254.4 253.3L-253.8 254.8M-254.4 253.3L-253.2 253.0M-247.8 253.0L-251.1 254.1M-85.1 278.3L-90.5 284.4M-253.2 253.0L-253.8 254.8M-130.8 277.2L-132.7 280.2M-95.3 283.0L-103.5 287.1M-95.3 283.0L-90.5 284.4M-253.8 254.8L-253.6 258.8M-253.8 254.8L-251.1 254.1M-175.3 267.4L-166.8 273.7M-123.7 281.0L-125.1 279.5M-125.1 279.5L-124.5 280.6M-132.7 280.2L-133.3 282.8M-123.7 281.0L-124.5 280.6M-90.5 284.4L-87.0 288.0M-90.5 284.4L-94.0 289.5M-123.7 281.0L-120.4 286.8M-166.8 273.7L-167.8 277.7M-166.8 273.7L-165.8 277.3M-132.1 284.6L-132.8 284.9M-103.5 287.1L-112.1 290.6M-87.0 288.0L-82.4 290.8M-120.4 286.8L-123.7 288.5M-120.4 286.8L-112.1 290.6M-133.3 282.8L-132.8 284.9M-253.6 258.8L-253.2 260.5M-167.8 277.7L-175.8 277.5M-167.8 277.7L-165.8 277.3M-94.0 289.5L-99.0 296.8M-75.2 292.0L-77.6 292.7M-75.2 292.0L-75.2 292.0M-244.0 262.4L-242.8 263.4M-244.0 262.4L-244.9 263.2M-132.8 284.9L-133.5 287.2M-77.6 292.7L-75.2 292.0M-175.8 277.5L-185.9 275.9M-194.5 275.0L-185.9 275.9M-194.5 275.0L-199.4 275.8M-82.4 290.8L-77.6 292.7M-242.8 263.4L-241.5 264.2M-242.8 263.4L-243.1 266.2M-241.5 264.2L-241.6 266.5M-244.9 263.2L-244.7 264.8M-133.5 287.2L-133.6 289.3M-123.7 288.5L-126.8 289.3M-123.7 288.5L-122.7 290.5M-122.7 290.5L-123.1 293.1M-77.6 292.7L-80.1 296.2M-243.1 266.2L-244.7 264.8M-243.1 266.2L-242.4 269.4M-126.8 289.3L-128.6 290.9M-133.6 289.3L-132.1 291.4M-243.1 266.2L-241.6 266.5M-241.6 266.5L-241.7 269.5M-128.6 290.9L-129.3 293.0M-234.1 268.3L-234.0 268.3M-199.4 275.8L-202.0 277.6M-132.1 291.4L-131.4 292.1M-132.1 291.4L-129.3 293.0M-99.0 296.8L-109.4 301.4M-99.0 296.8L-100.9 304.6M-99.0 296.8L-97.2 295.4M-204.6 279.3L-203.7 278.9M-242.4 269.4L-241.7 269.5M-112.1 290.6L-112.2 296.6M-129.3 293.0L-131.4 292.1M-123.1 293.1L-119.8 296.2M-242.4 269.4L-242.0 270.4M-241.7 269.5L-242.0 270.4M-112.2 296.6L-116.2 297.3M-109.4 301.4L-112.2 296.6M-123.1 293.1L-129.3 293.0M-80.1 296.2L-83.1 299.6M-202.0 277.6L-203.7 278.9M-119.8 296.2L-116.2 297.3M-116.2 297.3L-117.1 299.1M-129.3 293.0L-130.0 297.0M-119.8 296.2L-121.3 298.5M-83.1 299.6L-86.5 303.2M-220.7 280.9L-221.8 282.3M-92.5 304.4L-92.7 306.3M-121.3 298.5L-122.6 299.8M-121.3 298.5L-120.8 299.3M-109.4 301.4L-113.2 300.2M-109.4 301.4L-115.8 311.7M-86.5 303.2L-89.7 306.0M-130.0 297.0L-130.2 300.0M-117.1 299.1L-120.8 299.3M-117.1 299.1L-113.2 300.2M-122.6 299.8L-120.8 299.3M-86.5 303.2L-87.8 304.5M-122.6 299.8L-124.8 301.4M-100.9 304.6L-104.1 311.0M-124.8 301.4L-127.1 302.1M-130.2 300.0L-130.2 301.7M-89.7 306.0L-87.8 304.5M-224.8 285.0L-224.2 285.7M-203.3 290.1L-203.0 291.0M-127.1 302.1L-130.2 301.7M-92.7 306.3L-96.4 310.5M-92.7 306.3L-89.7 306.0M-221.8 282.3L-224.2 285.7M-138.9 301.5L-142.7 302.4M-138.9 301.5L-134.4 301.3M-130.2 301.7L-134.4 301.3M-89.7 306.0L-92.9 309.6M-244.2 283.4L-242.6 285.0M-142.7 302.4L-144.2 303.0M-197.2 291.8L-198.6 292.2M-197.2 291.8L-196.0 292.1M-224.2 285.7L-225.6 290.4M-198.6 292.2L-202.0 292.9M-198.6 292.2L-196.0 292.1M-196.0 292.1L-194.5 292.4M-203.0 291.0L-202.0 292.9M-104.1 311.0L-96.4 310.5M-96.4 310.5L-92.9 309.6M-242.6 285.0L-244.2 286.9M-242.6 285.0L-236.6 287.6M-186.1 298.7L-186.1 298.7M-186.1 298.7L-186.1 299.7M-202.0 292.9L-202.7 294.0M-236.6 287.6L-231.2 290.8M-186.1 298.7L-186.1 299.7M-180.1 303.8L-176.9 307.1M-180.1 303.8L-183.3 302.5M-244.2 286.9L-244.7 288.0M-231.2 290.8L-227.6 292.4M-186.1 299.7L-185.2 302.9M-225.6 290.4L-227.6 292.4M-115.8 311.7L-134.1 318.1M-115.8 311.7L-104.1 311.0M-183.3 302.5L-185.2 302.9M-151.8 313.5L-152.4 313.5M-151.8 313.5L-151.1 313.5M-185.2 302.9L-183.5 306.6M-176.9 307.1L-171.6 309.6M-171.6 309.6L-169.5 311.6M-171.6 309.6L-170.2 311.5M-176.9 307.1L-180.5 308.8M-134.1 318.1L-149.5 322.4M-183.5 306.6L-180.5 308.8M-180.5 308.8L-180.6 310.1M-169.5 311.6L-170.2 311.5M-169.5 311.6L-168.5 314.9M-193.1 310.8L-191.9 312.0M-170.2 311.5L-169.8 314.6M-168.5 314.9L-169.8 314.6M-169.8 314.6L-170.0 317.8M-168.5 314.9L-167.8 318.3M-226.0 305.5L-226.0 305.5M-226.0 305.5L-225.3 306.3M-191.9 312.0L-189.1 315.0M-149.5 322.4L-160.1 325.2M-226.0 305.5L-225.3 306.3M-225.3 306.3L-224.4 307.4M-203.3 311.7L-205.6 311.9M-203.3 311.7L-203.6 312.3M-170.0 317.8L-167.8 318.3M-167.8 318.3L-167.4 321.4M-170.0 317.8L-171.9 320.1M-205.6 311.9L-208.4 312.5M-205.6 311.9L-206.3 312.7M-208.4 312.5L-209.8 313.6M-171.9 320.1L-172.6 322.6M-203.6 312.3L-206.3 312.7M-189.1 315.0L-185.6 318.4M-185.6 318.4L-181.3 321.4M-167.4 321.4L-169.1 324.2M-206.3 312.7L-209.8 313.6M-172.6 322.6L-169.1 324.2M-172.6 322.6L-175.4 323.7M-209.8 313.6L-211.5 314.4M-181.3 321.4L-175.4 323.7M-169.1 324.2L-170.6 325.4M-169.1 324.2L-167.0 325.9M-170.6 325.4L-167.0 325.9M-160.1 325.2L-167.0 325.9M-175.4 323.7L-170.6 325.4" fill="none" stroke="#1c1c22" stroke-width="2.2" stroke-linecap="round" stroke-linejoin="round"/>
<text x="-750.0" y="-343.6" font-family="sans-serif" font-size="22" fill="#333">1966 traced road network — 2736 edges / 2235 nodes (grey = airport runway)</text>
</svg>